<svg width="261" height="263" viewBox="0 0 261 263" fill="none" xmlns="http://www.w3.org/2000/svg">
<g filter="url(#filter0_d_69_567)">
<rect width="250" height="252" rx="33" fill="#B19DD2"/>
</g>
<path d="M192.96 45.2002C191.591 45.2002 190.48 46.253 190.48 47.5502C190.48 48.8474 191.591 49.9002 192.96 49.9002C194.329 49.9002 195.44 48.8474 195.44 47.5502C195.44 46.253 194.329 45.2002 192.96 45.2002Z" fill="#F1BC19"/>
<path d="M125.76 48C75.0812 48 34 86.9277 34 134.95C34 182.972 75.0812 221.9 125.76 221.9C176.439 221.9 217.52 182.972 217.52 134.95C217.52 86.9277 176.439 48 125.76 48Z" fill="#E4E4F9"/>
<path d="M207.84 42.8501C202.362 42.8501 197.92 47.0589 197.92 52.2501C197.92 57.4412 202.362 61.6501 207.84 61.6501C213.318 61.6501 217.76 57.4412 217.76 52.2501C217.76 47.0589 213.318 42.8501 207.84 42.8501Z" fill="#F1BC19"/>
<path d="M217.76 68.7002C215.019 68.7002 212.8 70.8034 212.8 73.4002C212.8 75.9969 215.019 78.1002 217.76 78.1002C220.5 78.1002 222.72 75.9969 222.72 73.4002C222.72 70.8034 220.5 68.7002 217.76 68.7002Z" fill="#8889B9"/>
<path d="M202.88 190.9C200.14 190.9 197.92 193.003 197.92 195.6C197.92 198.197 200.14 200.3 202.88 200.3C205.62 200.3 207.84 198.197 207.84 195.6C207.84 193.003 205.62 190.9 202.88 190.9ZM39.2 155.65C33.7217 155.65 29.28 159.859 29.28 165.05C29.28 170.241 33.7217 174.45 39.2 174.45C44.6783 174.45 49.12 170.241 49.12 165.05C49.12 159.859 44.6783 155.65 39.2 155.65Z" fill="#FBCD59"/>
<path d="M64 216.75C61.2596 216.75 59.04 218.853 59.04 221.45C59.04 224.047 61.2596 226.15 64 226.15C66.7404 226.15 68.96 224.047 68.96 221.45C68.96 218.853 66.7404 216.75 64 216.75Z" fill="#8889B9"/>
<path d="M47.8799 132.15C44.4551 132.15 41.6799 134.78 41.6799 138.025C41.6799 141.271 44.4551 143.9 47.8799 143.9C51.3048 143.9 54.0799 141.271 54.0799 138.025C54.0799 134.78 51.3048 132.15 47.8799 132.15ZM199.16 92.2002C197.106 92.2002 195.44 93.7794 195.44 95.7252C195.44 97.671 197.106 99.2502 199.16 99.2502C201.213 99.2502 202.88 97.671 202.88 95.7252C202.88 93.7794 201.213 92.2002 199.16 92.2002Z" fill="white"/>
<path d="M149.56 158.181C161.613 158.181 171.384 148.922 171.384 137.501C171.384 126.08 161.613 116.821 149.56 116.821C137.507 116.821 127.736 126.08 127.736 137.501C127.736 148.922 137.507 158.181 149.56 158.181Z" fill="#39C1D7"/>
<path d="M106.629 195.816C95.0349 195.816 85.6382 187.006 85.6382 176.14C85.6382 165.273 95.0374 156.463 106.629 156.463L127.729 156.36V176.036C127.731 186.905 118.223 195.816 106.629 195.816Z" fill="#A0D2A1"/>
<path d="M106.616 116.657C95.015 116.657 85.6108 107.745 85.6108 96.752C85.6108 85.7587 95.015 76.8475 106.616 76.8475L127.731 76.7441V116.551L106.616 116.657Z" fill="#EE3E54"/>
<path d="M106.616 156.463C95.015 156.463 85.6108 147.552 85.6108 136.559C85.6108 125.565 95.015 116.654 106.616 116.654L127.731 116.551V156.357L106.616 156.463Z" fill="#BEACE5"/>
<path d="M150.394 76.85L129.497 76.7466V116.553L150.394 116.657C161.995 116.657 171.399 107.745 171.399 96.7521C171.397 85.7612 161.993 76.85 150.394 76.85Z" fill="#F48E8F"/>
<path d="M149.56 158.181C161.613 158.181 171.384 148.922 171.384 137.501C171.384 126.08 161.613 116.821 149.56 116.821C137.507 116.821 127.736 126.08 127.736 137.501C127.736 148.922 137.507 158.181 149.56 158.181Z" stroke="#472B29" stroke-width="1.4" stroke-miterlimit="10"/>
<path d="M106.629 195.816C95.0349 195.816 85.6382 187.006 85.6382 176.14C85.6382 165.273 95.0374 156.463 106.629 156.463L127.729 156.36V176.036C127.731 186.905 118.223 195.816 106.629 195.816Z" stroke="#472B29" stroke-width="1.4" stroke-miterlimit="10"/>
<path d="M106.616 116.657C95.015 116.657 85.6108 107.745 85.6108 96.752C85.6108 85.7587 95.015 76.8475 106.616 76.8475L127.731 76.7441V116.551L106.616 116.657Z" stroke="#472B29" stroke-width="1.4" stroke-miterlimit="10"/>
<path d="M106.616 156.463C95.015 156.463 85.6108 147.552 85.6108 136.559C85.6108 125.565 95.015 116.654 106.616 116.654L127.731 116.551V156.357L106.616 156.463Z" stroke="#472B29" stroke-width="1.4" stroke-miterlimit="10"/>
<path d="M129.497 76.7466L150.394 76.85C161.995 76.85 171.399 85.7612 171.399 96.7545C171.399 107.748 161.995 116.659 150.394 116.659L129.497 116.556" stroke="#472B29" stroke-width="1.4" stroke-miterlimit="10"/>
<path d="M96.5898 102.253C98.5862 105.454 102.264 107.6 106.473 107.6" stroke="#472B29" stroke-miterlimit="10" stroke-linecap="round" stroke-linejoin="round"/>
<path d="M95.7415 92.8745C95.2629 94.073 95 95.3702 95 96.7285" stroke="#472B29" stroke-miterlimit="10" stroke-linecap="round" stroke-linejoin="round"/>
<path d="M117.886 85.8013L106.473 85.8577C103.234 85.8577 100.31 87.129 98.2241 89.1735" stroke="#472B29" stroke-miterlimit="10" stroke-linecap="round" stroke-linejoin="round"/>
<path d="M102.44 166.058C103.69 165.621 105.042 165.381 106.453 165.381" stroke="#472B29" stroke-miterlimit="10" stroke-linecap="round"/>
<path d="M96.9815 182.154C95.7316 180.433 95 178.356 95 176.119C95 173.496 96.0019 171.094 97.6685 169.229" stroke="#472B29" stroke-miterlimit="10" stroke-linecap="round"/>
<path d="M106.453 186.851C104.575 186.851 102.802 186.428 101.237 185.676" stroke="#472B29" stroke-miterlimit="10" stroke-linecap="round"/>
<path d="M117.965 176.06C117.965 179.465 116.254 182.52 113.598 184.504" stroke="#472B29" stroke-miterlimit="10" stroke-linecap="round"/>
<path d="M142.133 146.979C139.114 144.836 137.16 141.419 137.16 137.569" stroke="#472B29" stroke-miterlimit="10" stroke-linecap="round" stroke-linejoin="round"/>
<path d="M160.993 133.013C161.615 134.413 161.96 135.955 161.96 137.572C161.96 144.06 156.407 149.322 149.56 149.322" stroke="#472B29" stroke-miterlimit="10" stroke-linecap="round" stroke-linejoin="round"/>
<path d="M149.56 125.819C152.129 125.819 154.515 126.56 156.494 127.826" stroke="#472B29" stroke-miterlimit="10" stroke-linecap="round" stroke-linejoin="round"/>
<defs>
<filter id="filter0_d_69_567" x="0" y="0" width="261" height="263" filterUnits="userSpaceOnUse" color-interpolation-filters="sRGB">
<feFlood flood-opacity="0" result="BackgroundImageFix"/>
<feColorMatrix in="SourceAlpha" type="matrix" values="0 0 0 0 0 0 0 0 0 0 0 0 0 0 0 0 0 0 127 0" result="hardAlpha"/>
<feMorphology radius="1" operator="dilate" in="SourceAlpha" result="effect1_dropShadow_69_567"/>
<feOffset dx="10" dy="10"/>
<feComposite in2="hardAlpha" operator="out"/>
<feColorMatrix type="matrix" values="0 0 0 0 0.397738 0 0 0 0 0.332684 0 0 0 0 0.505076 0 0 0 1 0"/>
<feBlend mode="normal" in2="BackgroundImageFix" result="effect1_dropShadow_69_567"/>
<feBlend mode="normal" in="SourceGraphic" in2="effect1_dropShadow_69_567" result="shape"/>
</filter>
</defs>
</svg>
