<svg width="241" height="247" viewBox="0 0 241 247" fill="none" xmlns="http://www.w3.org/2000/svg">
<g filter="url(#filter0_d_164_232)">
<path fill-rule="evenodd" clip-rule="evenodd" d="M91.9325 221.114C142.852 233.763 194.708 201.435 207.756 148.907C220.804 96.3797 190.104 43.5439 139.184 30.8952C88.2645 18.2465 36.4085 50.5747 23.3603 103.102C10.3122 155.63 41.013 208.466 91.9325 221.114ZM103.745 173.56C131.081 180.35 158.53 164.564 165.054 138.3C171.578 112.036 154.707 85.2403 127.371 78.45C100.035 71.6596 72.5866 87.4459 66.0625 113.71C59.5385 139.973 76.4097 166.769 103.745 173.56Z" fill="#F28F56"/>
<path d="M89.1504 192.327C89.4867 192.446 89.912 192.566 90.4264 192.686C90.9118 192.802 91.3854 192.9 91.847 192.982C92.3663 193.074 92.917 193.156 93.499 193.229C94.1098 193.307 94.7206 193.385 95.3314 193.463C95.8557 193.526 96.4546 193.587 97.1281 193.646C97.7678 193.73 98.3955 193.796 99.0113 193.845C98.7607 193.92 98.5314 194.043 98.3235 194.214C98.0868 194.381 97.8789 194.552 97.6999 194.729C97.5159 194.935 97.3439 195.157 97.1838 195.397C96.9651 195.804 96.8901 196.327 96.9589 196.963C97.0228 197.629 97.2408 198.263 97.613 198.864C97.9564 199.46 98.4495 199.964 99.0922 200.374C99.7012 200.809 100.424 201.011 101.262 200.981C102.162 200.931 102.993 200.766 103.755 200.484C104.488 200.197 105.148 199.733 105.734 199.093C106.286 198.476 106.752 197.666 107.133 196.662C107.48 195.682 107.731 194.477 107.888 193.047C108.076 191.265 108.028 189.814 107.745 188.693C107.462 187.572 107.034 186.693 106.46 186.057C105.886 185.42 105.219 184.975 104.46 184.722C103.667 184.493 102.874 184.353 102.08 184.302C101.512 184.32 100.965 184.477 100.438 184.77C100.009 185.022 99.583 185.423 99.1614 185.973C98.7397 186.523 98.4515 187.335 98.2966 188.409L92.9796 187.693C93.8785 186.096 94.8476 184.869 95.8869 184.012C96.9213 183.183 97.8896 182.565 98.7918 182.159C99.8531 181.692 100.88 181.427 101.871 181.364C103.089 181.371 104.157 181.47 105.075 181.662C105.989 181.883 106.8 182.175 107.511 182.538C108.221 182.902 108.864 183.313 109.439 183.771C110.014 184.23 110.556 184.712 111.063 185.218C111.393 185.544 111.737 186.051 112.095 186.739C112.452 187.427 112.76 188.225 113.02 189.134C113.275 190.071 113.443 191.083 113.524 192.168C113.605 193.253 113.522 194.339 113.276 195.426C113.024 196.542 112.571 197.622 111.916 198.667C111.26 199.711 110.339 200.664 109.15 201.525C107.353 202.815 105.549 203.537 103.738 203.694C101.894 203.874 100.213 203.711 98.6946 203.205C97.1714 202.728 95.8635 202.036 94.771 201.129C93.6784 200.222 92.9565 199.321 92.6051 198.426C92.2536 197.531 91.9998 196.847 91.8435 196.373C91.6533 195.923 91.5204 195.572 91.4448 195.321C91.3353 195.093 91.2472 194.914 91.1805 194.783C91.08 194.676 90.9437 194.518 90.7715 194.309C90.6521 194.139 90.5063 193.95 90.3341 193.741C90.1859 193.566 90.0137 193.357 89.8176 193.114C89.6216 192.872 89.3992 192.609 89.1504 192.327Z" fill="white"/>
<path d="M84.3308 195.416C83.861 195.117 83.4348 194.859 83.0523 194.643C82.6293 194.438 82.2702 194.268 81.9748 194.135C81.6284 193.973 81.3203 193.832 81.0504 193.714C80.6381 193.548 80.2057 193.388 79.7531 193.233C79.3664 193.081 78.9595 192.936 78.5324 192.795C78.065 192.666 77.6029 192.556 77.1461 192.466C77.5217 192.173 77.842 191.917 78.1072 191.697C78.3724 191.477 78.5899 191.28 78.7596 191.107C78.9696 190.923 79.1191 190.755 79.2081 190.603C79.3375 190.441 79.4763 190.233 79.6246 189.98C79.9023 189.565 80.3103 188.871 80.8485 187.896C78.8547 188.284 77.226 188.541 75.9624 188.668C74.6734 188.78 73.6572 188.862 72.9139 188.913C72.039 188.957 71.3858 188.941 70.9546 188.866C69.9219 188.484 69.2191 187.801 68.8461 186.816C68.6884 186.39 68.5953 185.884 68.567 185.296C68.5238 184.733 68.6004 184.053 68.7969 183.255C68.9934 182.458 69.3225 181.55 69.7841 180.533C70.231 179.54 70.8784 178.409 71.7263 177.138C72.2915 177.39 72.8058 177.614 73.2691 177.808C73.7068 177.988 74.0734 178.145 74.3688 178.278C74.73 178.415 75.0509 178.563 75.3315 178.722L76.4312 179.192C76.8179 179.343 77.2939 179.545 77.8592 179.797C78.3842 180.06 79.0387 180.363 79.8229 180.705C78.2473 180.958 77.121 181.314 76.4441 181.773C75.7268 182.242 75.2676 182.706 75.0665 183.165C74.8356 183.674 74.8204 184.22 75.0208 184.804C75.3422 185.356 75.8057 185.753 76.4114 185.994C76.9256 186.217 77.6128 186.32 78.473 186.301C79.3331 186.283 80.4244 185.957 81.7467 185.325C82.6451 183.679 83.3803 182.312 83.9523 181.222C84.4989 180.117 84.9395 179.222 85.2742 178.537C85.6427 177.736 85.9275 177.106 86.1287 176.648C86.2747 176.225 86.359 175.735 86.3816 175.175C86.4108 174.721 86.3857 174.185 86.3063 173.568C86.2269 172.951 86.0455 172.277 85.7621 171.545C86.8546 172.229 87.7728 172.748 88.5166 173.101C88.965 173.321 89.3625 173.512 89.7089 173.674C90.0956 173.826 90.5078 173.991 90.9456 174.171C91.3323 174.323 91.7828 174.51 92.2971 174.733C92.8007 174.917 93.3553 175.13 93.9609 175.371C93.5937 175.533 93.2351 175.768 92.885 176.075C92.5498 176.357 92.2476 176.64 91.9782 176.925C91.6537 177.247 91.3472 177.595 91.0589 177.97C90.8257 178.31 90.5014 178.833 90.086 179.54C89.6452 180.233 89.1906 181.036 88.7225 181.949C88.2139 182.873 87.7033 183.83 87.1906 184.818C86.6631 185.833 86.1854 186.791 85.7576 187.693C85.3297 188.595 84.9814 189.391 84.7125 190.08C84.4033 190.78 84.2256 191.285 84.1793 191.596C84.1288 191.971 84.1038 192.361 84.1043 192.765C84.0942 193.129 84.1149 193.528 84.1664 193.961C84.2031 194.419 84.2579 194.904 84.3308 195.416Z" fill="white"/>
<path d="M64.0344 163.089C63.5016 162.465 62.9385 161.941 62.3448 161.516C61.8501 161.162 61.306 160.886 60.7123 160.687C60.0768 160.484 59.4394 160.526 58.8 160.815C58.5108 160.296 58.2673 159.853 58.0695 159.486C57.8488 159.137 57.6662 158.833 57.5216 158.574C57.3808 158.274 57.2457 158.025 57.1164 157.829C57.0098 157.614 56.8748 157.365 56.7111 157.084C56.5666 156.824 56.3953 156.511 56.1975 156.144C55.9578 155.773 55.6933 155.328 55.4042 154.809C55.6439 155.18 55.973 155.498 56.3916 155.762C56.7912 156.005 57.1926 156.227 57.596 156.429C58.0603 156.657 58.5397 156.835 59.0345 156.963C59.3427 157.054 59.748 157.122 60.2503 157.169C60.7336 157.194 61.3006 157.34 61.9514 157.606C62.6021 157.872 63.3517 158.321 64.2003 158.954C65.007 159.583 65.9013 160.517 66.883 161.757C68.074 163.242 68.8482 164.667 69.2058 166.033C69.5406 167.417 69.6108 168.694 69.4166 169.865C69.1996 171.053 68.7828 172.121 68.1662 173.068C67.5496 174.014 66.8854 174.792 66.1737 175.402C65.462 176.011 64.5163 176.414 63.3365 176.611C62.1568 176.808 60.8933 176.771 59.5462 176.502C58.18 176.21 56.7967 175.65 55.3964 174.821C53.9732 174.012 52.6718 172.916 51.4922 171.535C50.8073 170.733 50.2822 169.915 49.9169 169.081C49.5098 168.244 49.2283 167.418 49.0723 166.604C48.8974 165.768 48.8347 164.973 48.8842 164.22C48.9109 163.484 49.0061 162.807 49.1698 162.187C49.3564 161.548 49.6038 160.936 49.9121 160.35C50.171 159.842 50.5154 159.321 50.9455 158.787C51.3756 158.254 51.8837 157.789 52.4698 157.393C53.9614 159.049 55.1657 160.392 56.0828 161.421C56.9808 162.427 57.6771 163.22 58.1718 163.799L59.456 165.303L60.4263 166.439C60.7688 166.84 61.2273 167.355 61.8019 167.982C62.3764 168.61 63.0861 169.374 63.9308 170.273C64.7491 169.427 65.2192 168.58 65.3411 167.73C65.4211 166.877 65.3679 166.093 65.1815 165.379C64.9609 164.579 64.5785 163.816 64.0344 163.089ZM60.4372 171.052C59.8741 170.302 59.4042 169.684 59.0275 169.198C58.6317 168.689 58.3121 168.27 58.0686 167.94C57.806 167.587 57.5892 167.311 57.4179 167.11L56.7045 166.275C56.2288 165.718 55.3099 164.709 53.9476 163.25C53 164.124 52.4157 164.95 52.1949 165.729C51.9551 166.485 51.8713 167.154 51.9435 167.734C52.05 168.4 52.3087 169.019 52.7197 169.59C53.9792 171.02 55.2102 171.853 56.4127 172.088C57.5962 172.302 58.9377 171.956 60.4372 171.052Z" fill="white"/>
<path d="M44.2009 152.449C43.9856 152.363 43.6494 152.376 43.1925 152.488C42.6981 152.582 42.1287 152.637 41.4844 152.654C40.8305 152.644 40.1058 152.518 39.3103 152.276C38.5148 152.033 37.6659 151.501 36.7638 150.678C35.8712 149.884 35.2119 149.046 34.7857 148.167C34.3596 147.288 34.1015 146.402 34.0115 145.51C33.9215 144.617 33.9624 143.745 34.1342 142.894C34.2965 142.015 34.5245 141.192 34.8183 140.425C35.011 139.904 35.386 139.419 35.9434 138.968C36.4729 138.527 37.1052 138.114 37.8406 137.731C38.5759 137.348 39.3674 136.993 40.2152 136.666C41.0255 136.321 41.8313 136.008 42.6327 135.726C43.4061 135.454 44.1284 135.213 44.7994 135.003C45.433 134.774 45.9453 134.553 46.3361 134.338C46.9132 134.035 47.3778 133.675 47.73 133.258C48.0541 132.85 48.3129 132.431 48.5062 132.003C48.6715 131.583 48.7809 131.181 48.8344 130.796C48.8879 130.411 48.9137 130.08 48.9119 129.805C48.9386 129.612 48.9421 129.443 48.9225 129.295C48.9391 128.983 48.8724 128.789 48.7225 128.713C49.1711 128.757 49.559 128.805 49.8863 128.856C50.2135 128.907 50.4893 128.944 50.7136 128.965C50.9754 129.006 51.1905 129.046 51.3588 129.086C51.5552 129.117 51.7423 129.165 51.9202 129.233C52.0886 129.272 52.2805 129.335 52.4959 129.421C52.7113 129.507 52.9407 129.588 53.184 129.666C53.168 130.07 53.1193 130.468 53.0379 130.862C52.9469 131.228 52.8604 131.562 52.7783 131.864C52.6874 132.23 52.5869 132.568 52.4768 132.879C52.3668 133.189 52.2241 133.495 52.0486 133.795C51.8916 134.059 51.7254 134.341 51.5499 134.641C51.3649 134.914 51.1424 135.167 50.8825 135.402C51.3031 135.455 51.9585 135.695 52.8487 136.122C53.7293 136.522 54.6207 137.133 55.5228 137.955C56.3969 138.787 57.1744 139.832 57.8553 141.092C58.5266 142.325 58.8681 143.813 58.8797 145.559C58.8941 146.321 58.7964 147.073 58.5865 147.813C58.3486 148.563 57.9983 149.255 57.5355 149.891C57.0632 150.499 56.469 151.022 55.7527 151.461C54.9989 151.881 54.0994 152.147 53.054 152.259C52.0087 152.371 51.0648 152.282 50.2222 151.993C49.3797 151.705 48.6297 151.279 47.9722 150.718C47.3146 150.156 46.7264 149.481 46.2074 148.692C45.6885 147.903 45.2299 147.065 44.8317 146.177C44.5561 145.465 44.3504 144.732 44.2147 143.976C44.117 143.332 44.1076 142.629 44.1866 141.868C44.2377 141.116 44.4758 140.412 44.9011 139.758C43.4286 140.249 42.2733 140.671 41.435 141.025C40.5593 141.361 39.8933 141.63 39.437 141.834C38.9158 142.12 38.5577 142.339 38.3626 142.492C38.2145 142.692 38.0432 142.914 37.8486 143.159C37.6446 143.376 37.4828 143.627 37.3633 143.909C37.2158 144.201 37.1293 144.535 37.1037 144.911C37.0782 145.287 37.1556 145.693 37.336 146.127C37.5259 146.589 37.7803 146.924 38.0992 147.131C38.4182 147.338 38.76 147.477 39.1247 147.547C39.452 147.598 39.7881 147.585 40.1332 147.508C40.4782 147.431 40.7671 147.325 40.9997 147.191C41.1484 147.083 41.3016 146.943 41.4592 146.771C41.5889 146.608 41.7183 146.398 41.8473 146.143C41.9764 145.888 42.0537 145.573 42.0792 145.196C42.3822 145.807 42.6473 146.353 42.8747 146.835C43.0741 147.325 43.2636 147.741 43.4434 148.084C43.6422 148.482 43.8079 148.829 43.9407 149.125C44.0734 149.421 44.2531 149.764 44.4799 150.153C44.6596 150.496 44.8819 150.917 45.1468 151.417C45.4116 151.917 45.733 152.492 46.1109 153.141C45.858 153.036 45.6239 152.94 45.4085 152.854C45.1651 152.777 44.9545 152.705 44.7766 152.638C44.5707 152.579 44.3789 152.516 44.2009 152.449ZM47.0492 144.655C47.2486 145.145 47.5459 145.604 47.941 146.033C48.3082 146.471 48.7542 146.822 49.279 147.088C49.7758 147.362 50.3235 147.559 50.9221 147.678C51.4831 147.779 52.0573 147.738 52.6445 147.554C53.2317 147.371 53.7014 147.07 54.0535 146.653C54.3682 146.217 54.5844 145.72 54.7021 145.162C54.8103 144.576 54.7971 143.997 54.6625 143.425C54.5184 142.826 54.2672 142.276 53.909 141.774C53.5323 141.309 53.0533 140.906 52.4719 140.566C51.8626 140.235 51.2492 139.982 50.6316 139.807C49.986 139.641 49.3877 139.567 48.8368 139.586C48.2579 139.613 47.8197 139.735 47.5223 139.951C46.8715 140.4 46.5396 141.056 46.5266 141.919C46.4857 142.791 46.6599 143.703 47.0492 144.655Z" fill="white"/>
<path d="M27.9022 128.801C27.9852 127.923 28.0544 127.192 28.1097 126.606C28.1648 125.991 28.206 125.494 28.2332 125.113C28.26 124.674 28.2727 124.323 28.2713 124.059C28.2991 123.796 28.2971 123.444 28.2654 123.004C28.234 122.623 28.2019 122.125 28.1692 121.509C28.1071 120.894 28.0149 120.116 27.8925 119.178C28.1866 119.386 28.4512 119.549 28.6862 119.668C28.8919 119.787 29.0829 119.892 29.2592 119.981L29.788 120.25C29.9641 120.31 30.1402 120.37 30.3163 120.43C30.4631 120.49 30.6392 120.55 30.8446 120.61C31.0498 120.642 31.2697 120.673 31.5042 120.704L31.4665 113.937L35.0293 114.584L34.7123 120.777C36.2072 120.937 37.365 121.049 38.1856 121.115C39.0062 121.181 39.6071 121.245 39.9883 121.307L40.7797 121.402C41.8935 121.5 43.1097 121.599 44.4285 121.698C45.718 121.798 46.9193 121.838 48.0324 121.818C49.1455 121.799 50.0823 121.705 50.8431 121.536C51.5745 121.367 51.9389 121.062 51.9365 120.623C51.934 120.183 51.8146 119.772 51.5781 119.389C51.3416 119.006 51.0615 118.682 50.7378 118.415C50.4139 118.119 50.0904 117.897 49.7673 117.747C49.415 117.598 49.1509 117.522 48.9751 117.521C48.7994 117.519 48.5945 117.561 48.3607 117.647C47.922 117.789 47.3669 118.048 46.6952 118.423C46.8955 117.575 47.0964 116.83 47.2979 116.187C47.4133 115.866 47.5289 115.574 47.6446 115.312C47.7601 115.02 47.8901 114.684 48.0344 114.304C48.1791 113.983 48.3526 113.575 48.5549 113.079C48.7572 112.582 49.0029 111.999 49.2921 111.327C49.4129 111.973 49.6059 112.443 49.8712 112.739C49.9894 112.916 50.122 113.049 50.2689 113.138C50.5923 113.346 51.0331 113.584 51.5912 113.853C52.12 114.121 52.6495 114.521 53.1797 115.053C53.71 115.585 54.1827 116.307 54.5979 117.219C55.013 118.102 55.254 119.29 55.3209 120.785C55.3881 122.338 55.1311 123.522 54.5497 124.337C53.9682 125.123 53.2977 125.703 52.5381 126.077C51.7491 126.422 50.9739 126.62 50.2126 126.672C49.4512 126.723 48.9388 126.763 48.6753 126.79C48.4118 126.817 47.7526 126.811 46.6978 126.772C45.643 126.733 44.4856 126.679 43.2255 126.609C41.9362 126.539 40.7055 126.47 39.5333 126.401C38.3318 126.331 37.4528 126.294 36.8962 126.289C36.6032 126.286 36.2956 126.269 35.9731 126.237C35.7095 126.235 35.4312 126.232 35.1382 126.229C34.8158 126.197 34.5081 126.18 34.2151 126.177L34.2067 132.549L31.7034 132.79L31.8434 126.376C31.5215 126.432 31.2289 126.502 30.9658 126.588C30.6731 126.644 30.4391 126.7 30.2637 126.757C30.0591 126.843 29.8838 126.93 29.7378 127.016C29.592 127.132 29.4316 127.262 29.2566 127.407C29.111 127.553 28.9216 127.741 28.6885 127.974C28.4555 128.206 28.1934 128.482 27.9022 128.801Z" fill="white"/>
<path d="M36.9702 108.25L38.9203 100.402C40.5509 101.272 41.952 101.966 43.1235 102.485C44.3019 102.976 45.2976 103.348 46.1106 103.602C47.0242 103.939 47.8155 104.157 48.4846 104.256C49.1034 104.313 49.7785 104.323 50.5099 104.286C51.1205 104.25 51.8369 104.15 52.659 103.984C53.4812 103.818 54.3303 103.538 55.2065 103.144C55.0114 103.459 54.8381 103.809 54.6865 104.195C54.5349 104.58 54.4043 104.941 54.2948 105.276C54.1717 105.668 54.0771 106.067 54.011 106.473C53.9449 106.879 53.883 107.331 53.8251 107.829C53.7876 108.242 53.744 108.743 53.6944 109.334C53.6448 109.924 53.6169 110.55 53.6108 111.211C52.4295 110.479 51.3956 109.887 50.509 109.435C49.6292 108.955 48.8893 108.583 48.2893 108.32C47.5752 108.03 46.9935 107.817 46.5443 107.68C45.9742 107.544 45.3329 107.392 44.6203 107.222C43.8792 107.046 43.1667 106.877 42.4826 106.714C41.7985 106.552 41.1966 106.424 40.6768 106.33C40.1285 106.23 39.7729 106.206 39.6101 106.257L39.0813 106.583C38.8982 106.721 38.6379 106.93 38.3003 107.211C37.941 107.457 37.4976 107.803 36.9702 108.25ZM31.1055 103.649C30.9339 102.976 30.9902 102.357 31.2746 101.792C31.5657 101.199 31.9514 100.778 32.4315 100.531C32.9116 100.284 33.4089 100.282 33.9234 100.524C34.4447 100.739 34.8639 101.32 35.1811 102.269C35.4697 103.211 35.4684 103.978 35.1773 104.572C34.8862 105.165 34.4822 105.536 33.9653 105.684C33.4485 105.832 32.911 105.749 32.353 105.436C31.7665 105.116 31.3506 104.52 31.1055 103.649Z" fill="white"/>
<path d="M35.8769 93.344C36.1869 92.9429 36.4908 92.5222 36.7883 92.0819C37.0462 91.6543 37.2835 91.2656 37.5005 90.9158C37.7447 90.5142 37.969 90.1188 38.1734 89.7298C38.3779 89.3408 38.5965 88.8933 38.8294 88.3873C39.0213 87.9591 39.2411 87.4465 39.4887 86.8494C39.7499 86.2264 40.0123 85.5383 40.2758 84.7851C40.2929 85.3194 40.3706 85.7695 40.5092 86.1356C40.6478 86.5016 40.7874 86.8025 40.9283 87.0383C41.1077 87.3266 41.2883 87.5497 41.47 87.7077C41.6517 87.8657 42.0896 88.0715 42.7835 88.3254C43.4774 88.5792 44.2895 88.8601 45.2197 89.1682C46.1635 89.4503 47.1533 89.7393 48.1891 90.0353C49.2249 90.3313 50.1823 90.5875 51.0614 90.8039C51.9541 90.9944 52.7026 91.1444 53.3068 91.2541C53.9246 91.3379 54.2477 91.3213 54.2761 91.2043C54.3307 91.1005 54.1512 90.8123 53.7378 90.3395C53.338 89.8408 52.8343 89.2565 52.2267 88.5866C51.593 87.9034 50.9008 87.1741 50.1501 86.3986C49.3732 85.6099 48.6412 84.8932 47.9541 84.2486C47.267 83.604 46.6832 83.0776 46.2028 82.6694C45.7099 82.222 45.4044 81.9847 45.2863 81.9576C45.1409 81.9823 44.9495 82.0002 44.7122 82.011C44.3294 82.0467 43.6218 82.1966 42.5894 82.4609C43.0369 81.7353 43.4299 81.1135 43.7684 80.5955C44.0807 80.0641 44.3516 79.6431 44.581 79.3325C44.8377 78.9701 45.0405 78.6788 45.1892 78.4586C45.338 78.2385 45.5152 77.9014 45.7208 77.4472C45.9116 77.0842 46.1507 76.5978 46.4381 75.988C46.7129 75.3391 47.0366 74.5343 47.4092 73.5735C47.4466 74.4468 47.5063 75.1834 47.588 75.7835C47.6573 76.3443 47.7351 76.7945 47.8214 77.134C47.9327 77.5519 48.0457 77.8721 48.1604 78.0946C48.4046 78.4486 49.044 79.184 50.0786 80.3007C50.5182 80.7867 51.061 81.391 51.7073 82.1133C52.3671 82.8098 53.1627 83.6573 54.094 84.6559C55.0128 85.6153 56.0866 86.7519 57.3155 88.0659C58.5444 89.3798 59.9612 90.8713 61.566 92.5404L59.9747 96.5127C58.07 96.1698 56.4874 95.8753 55.2267 95.6294C53.9535 95.3443 52.9296 95.1201 52.155 94.9568C51.2623 94.7663 50.5667 94.6102 50.0681 94.4884C49.5036 94.3661 48.7035 94.1569 47.6677 93.8609C46.6058 93.5517 45.5308 93.2358 44.4427 92.9133C43.3547 92.5908 42.3711 92.3213 41.4921 92.1049C40.5869 91.8753 40.0156 91.7659 39.7782 91.7767C39.5931 91.8142 39.3148 91.9028 38.9434 92.0428C38.6254 92.1441 38.2273 92.3034 37.7492 92.5206C37.2449 92.7245 36.6208 92.9989 35.8769 93.344Z" fill="white"/>
<path d="M70.1384 74.3496C70.7394 73.7913 71.2358 73.2102 71.6278 72.6063C71.9544 72.103 72.1979 71.557 72.3584 70.9683C72.5197 70.3387 72.4287 69.7238 72.0851 69.1236C72.5965 68.8084 73.0333 68.5426 73.3954 68.3261C73.737 68.0887 74.0356 67.8913 74.2914 67.7336C74.5891 67.577 74.8341 67.4294 75.0263 67.2907C75.2391 67.173 75.4841 67.0254 75.7613 66.8478C76.017 66.6902 76.3259 66.5032 76.688 66.2867C77.0511 66.0294 77.4883 65.7431 77.9997 65.4279C77.6367 65.6852 77.3348 66.0256 77.0941 66.4491C76.8748 66.8527 76.6765 67.2567 76.4992 67.6613C76.2995 68.1265 76.1521 68.6032 76.057 69.0913C75.987 69.3961 75.9465 69.7935 75.9353 70.2835C75.9457 70.7536 75.8384 71.3129 75.6136 71.9615C75.3887 72.61 74.9828 73.3668 74.3958 74.2319C73.8098 75.0561 72.9167 75.9856 71.7165 77.0206C70.2803 78.2749 68.8743 79.1213 67.4986 79.5598C66.1023 79.9775 64.7961 80.1317 63.58 80.0223C62.3432 79.8921 61.2162 79.5601 60.1987 79.0263C59.1813 78.4925 58.3333 77.9012 57.6546 77.2526C56.976 76.6039 56.4919 75.7145 56.2025 74.5845C55.913 73.4544 55.8568 72.2275 56.034 70.9037C56.2326 69.5601 56.7051 68.1817 57.4516 66.7688C58.1776 65.335 59.206 63.9999 60.5368 62.7637C61.3095 62.0459 62.1102 61.4819 62.939 61.0717C63.7687 60.6208 64.5956 60.2923 65.4197 60.0863C66.2653 59.8604 67.0769 59.7461 67.8543 59.7433C68.6113 59.7197 69.3141 59.7663 69.9628 59.8832C70.632 60.0209 71.2789 60.2195 71.9033 60.4788C72.4447 60.6954 73.0052 60.9941 73.5849 61.3749C74.1646 61.7558 74.6794 62.2169 75.1293 62.7582C73.5391 64.3154 72.2498 65.573 71.2615 66.5311C70.2947 67.4692 69.5322 68.1975 68.9742 68.7159L67.5253 70.0618L66.4306 71.0787C66.0443 71.4376 65.5501 71.9166 64.9482 72.5158C64.3462 73.1149 63.6151 73.8541 62.7546 74.7334C63.6834 75.4694 64.5884 75.8679 65.4695 75.9288C66.3515 75.9488 67.1523 75.8444 67.8719 75.6157C68.6764 75.348 69.4319 74.9259 70.1384 74.3496ZM61.6958 71.4001C62.4237 70.8038 63.0233 70.3068 63.4946 69.9089C63.9874 69.4911 64.3943 69.1531 64.7153 68.8949C65.0578 68.6167 65.3256 68.3878 65.5188 68.2084L66.3237 67.4607C66.8604 66.9622 67.8276 66.0037 69.2256 64.5851C68.2576 63.7256 67.3657 63.2151 66.55 63.0535C65.7556 62.8721 65.0631 62.8359 64.4723 62.945C63.7966 63.0931 63.1806 63.3855 62.6244 63.8223C61.2497 65.1392 60.4859 66.3884 60.333 67.5697C60.2016 68.731 60.6558 70.0078 61.6958 71.4001Z" fill="white"/>
<path d="M93.1246 46.461C94.0407 46.2251 94.7852 46.0352 95.3582 45.8914C95.9569 45.7157 96.4424 45.5803 96.8147 45.4854C97.2419 45.3557 97.5687 45.2505 97.7951 45.1697C98.0216 45.0889 98.3467 44.9691 98.7705 44.8103C99.1359 44.6572 99.6163 44.4782 100.212 44.2734C100.803 44.0395 101.549 43.7318 102.448 43.3504C102.249 43.664 102.09 43.9443 101.971 44.1912C101.879 44.4062 101.783 44.5921 101.683 44.7488C101.587 44.9347 101.503 45.1047 101.433 45.2586C101.363 45.4126 101.301 45.6393 101.247 45.9387C101.216 46.1772 101.183 46.5189 101.146 46.9638C101.107 47.3797 101.097 47.925 101.117 48.5999C102.576 47.458 103.932 46.5762 105.186 45.9544C106.47 45.3297 107.595 44.8675 108.563 44.5678C109.702 44.222 110.741 44.033 111.681 44.0007C112.858 43.975 113.968 44.1323 115.01 44.4727C116.079 44.7812 117.055 45.1869 117.94 45.6897C118.825 46.1925 119.614 46.7635 120.308 47.4025C121.002 48.0415 121.565 48.6932 121.997 49.3576C122.285 49.8006 122.509 50.4557 122.67 51.323C122.86 52.1875 122.881 53.1271 122.735 54.1418C122.589 55.1566 122.236 56.1765 121.678 57.2017C121.146 58.195 120.314 59.026 119.183 59.6947C117.222 60.8265 115.228 61.5494 113.2 61.8636C112.332 62.0066 111.425 62.0651 110.478 62.0391C109.56 62.0103 108.613 61.852 107.635 61.5641C106.687 61.2734 105.749 60.8199 104.822 60.2035C103.891 59.558 103.009 58.7017 102.176 57.6347C102.117 59.1413 102.093 60.4531 102.106 61.5701C102.145 62.6552 102.193 63.5629 102.249 64.2932C102.318 65.1398 102.402 65.8527 102.499 66.4318C102.626 67.0081 102.816 67.6224 103.069 68.2747C103.283 68.8426 103.566 69.492 103.917 70.2231C104.301 70.9805 104.761 71.7599 105.297 72.5614C105.115 72.5201 104.862 72.5005 104.538 72.5025C104.246 72.5307 103.944 72.5895 103.63 72.6788C103.287 72.7709 102.9 72.8672 102.469 72.9678C102.071 73.0947 101.631 73.2403 101.149 73.4047C100.751 73.5316 100.282 73.68 99.7415 73.8501C99.2337 74.0465 98.713 74.2588 98.1794 74.487C98.4558 74.0777 98.6525 73.6172 98.7695 73.1056C98.919 72.6203 99.0282 72.1683 99.0971 71.7496C99.1558 71.2436 99.1999 70.7391 99.2294 70.2359C99.2074 69.7966 99.1539 68.9631 99.069 67.7354C99.0166 66.5339 98.9275 65.1447 98.8016 63.5678C98.6723 61.9617 98.5199 60.2844 98.3445 58.5357C98.1981 56.7842 98.038 55.1665 97.864 53.6825C97.7158 52.1666 97.5657 50.8863 97.4138 49.8416C97.2618 48.7969 97.1319 48.1915 97.0239 48.0254C96.8834 47.833 96.6391 47.636 96.2911 47.4343C96.0048 47.256 95.6018 47.0891 95.0822 46.9334C94.5918 46.7749 93.9392 46.6174 93.1246 46.461ZM104.466 53.3959C104.34 54.0849 104.373 54.7439 104.565 55.3727C104.757 56.0015 105.118 56.5698 105.65 57.0774C106.21 57.5823 106.953 58.0105 107.879 58.3622C108.831 58.682 109.99 58.8787 111.355 58.9524C112.72 59.0262 113.737 58.8982 114.406 58.5685C115.076 58.2388 115.538 57.782 115.794 57.198C116.076 56.5822 116.231 55.8903 116.259 55.1225C116.283 54.3255 116.333 53.4967 116.409 52.6359C116.489 51.8042 116.363 50.9778 116.03 50.1565C115.695 49.3062 115.267 48.5531 114.748 47.8971C114.258 47.2383 113.725 46.7161 113.149 46.3305C112.599 45.913 112.134 45.7226 111.755 45.7593C110.851 45.8469 109.989 46.1659 109.168 46.7162C108.348 47.2665 107.615 47.9262 106.967 48.6952C106.32 49.4641 105.767 50.2828 105.309 51.1513C104.876 51.9878 104.595 52.736 104.466 53.3959Z" fill="white"/>
<path d="M131.596 48.9744C131.788 48.8495 131.968 48.5676 132.135 48.1286C132.339 47.6702 132.616 47.1731 132.967 46.6372C133.345 46.1099 133.859 45.5934 134.507 45.0876C135.155 44.5818 136.07 44.204 137.253 43.9542C138.407 43.6957 139.463 43.6525 140.422 43.8244C141.381 43.9964 142.251 44.3093 143.03 44.7632C143.809 45.2171 144.498 45.7657 145.095 46.409C145.721 47.0608 146.263 47.7332 146.723 48.426C147.039 48.8907 147.222 49.4835 147.274 50.2044C147.335 50.8972 147.314 51.6568 147.21 52.4831C147.106 53.3095 146.948 54.1648 146.734 55.0493C146.557 55.9143 146.357 56.7568 146.132 57.5767C145.917 58.3686 145.704 59.1003 145.496 59.7717C145.324 60.4237 145.214 60.9725 145.168 61.4179C145.088 62.0678 145.119 62.6595 145.26 63.1931C145.41 63.6988 145.605 64.1571 145.845 64.568C146.094 64.951 146.36 65.278 146.644 65.5491C146.928 65.8202 147.183 66.0364 147.409 66.1977C147.551 66.3333 147.688 66.4365 147.819 66.5075C148.064 66.7054 148.26 66.7656 148.407 66.6881C148.117 67.0282 147.859 67.3166 147.632 67.5533C147.405 67.7901 147.219 67.9935 147.074 68.1635C146.892 68.3529 146.738 68.5046 146.61 68.6187C146.474 68.7607 146.328 68.8845 146.173 68.9899C146.045 69.104 145.885 69.2235 145.693 69.3483C145.501 69.4732 145.304 69.612 145.103 69.7648C144.783 69.5131 144.485 69.2377 144.21 68.9387C143.962 68.6482 143.739 68.3804 143.539 68.1351C143.292 67.8447 143.073 67.5628 142.882 67.2896C142.69 67.0163 142.522 66.7194 142.376 66.3988C142.25 66.1148 142.114 65.8125 141.968 65.4919C141.85 65.1799 141.769 64.8485 141.725 64.4978C141.444 64.8099 140.877 65.2027 140.024 65.6762C139.199 66.1584 138.195 66.5244 137.013 66.7742C135.84 66.9961 134.546 67.0125 133.132 66.8234C131.746 66.6429 130.338 66.0417 128.907 65.0199C128.276 64.5811 127.718 64.0572 127.232 63.4483C126.756 62.8115 126.389 62.1165 126.132 61.3634C125.903 60.6189 125.813 59.8249 125.86 58.9814C125.945 58.1185 126.237 57.2276 126.738 56.3087C127.238 55.3898 127.845 54.672 128.558 54.1554C129.271 53.6389 130.042 53.2783 130.873 53.0737C131.704 52.8691 132.588 52.7883 133.526 52.8311C134.463 52.874 135.407 52.9954 136.358 53.1953C137.095 53.391 137.81 53.6566 138.503 53.9922C139.084 54.2933 139.663 54.701 140.24 55.2151C140.825 55.7013 141.264 56.3113 141.557 57.045C141.991 55.5537 142.3 54.3615 142.486 53.4685C142.708 52.5561 142.865 51.8535 142.957 51.3607C143.019 50.7668 143.043 50.345 143.028 50.0954C142.949 49.8566 142.865 49.5855 142.775 49.2821C142.713 48.9873 142.601 48.7076 142.438 48.4429C142.283 48.1503 142.06 47.8825 141.767 47.6394C141.475 47.3963 141.1 47.2199 140.643 47.1102C140.158 46.992 139.741 47.0017 139.392 47.1395C139.042 47.2773 138.735 47.4742 138.471 47.7304C138.244 47.9671 138.065 48.249 137.932 48.5761C137.8 48.9032 137.723 49.2013 137.7 49.4703C137.704 49.6553 137.732 49.863 137.783 50.0932C137.842 50.2955 137.94 50.5246 138.075 50.7806C138.21 51.0367 138.424 51.2863 138.717 51.5294C138.046 51.4154 137.451 51.309 136.929 51.2102C136.416 51.0833 135.969 50.9919 135.588 50.9361C135.15 50.863 134.773 50.7931 134.456 50.7265C134.139 50.6598 133.758 50.6039 133.312 50.5588C132.93 50.503 132.461 50.4353 131.902 50.3558C131.344 50.2763 130.693 50.1989 129.95 50.1237C130.178 49.9795 130.389 49.845 130.581 49.7202C130.782 49.5673 130.96 49.4382 131.116 49.3327C131.28 49.1993 131.44 49.0798 131.596 48.9744ZM136.344 55.9034C135.831 55.7765 135.288 55.7476 134.714 55.8165C134.149 55.8575 133.61 56.0136 133.096 56.2849C132.591 56.5281 132.12 56.8585 131.683 57.2761C131.283 57.6742 130.992 58.167 130.809 58.7545C130.626 59.342 130.605 59.9026 130.746 60.4362C130.924 60.9504 131.207 61.4205 131.596 61.8465C132.013 62.2811 132.493 62.6124 133.036 62.8404C133.607 63.077 134.198 63.1974 134.811 63.2016C135.404 63.1692 136.003 63.0163 136.61 62.7429C137.225 62.4415 137.779 62.0907 138.272 61.6903C138.773 61.262 139.172 60.8176 139.469 60.357C139.774 59.8685 139.923 59.4392 139.915 59.0691C139.918 58.2729 139.57 57.6145 138.873 57.0939C138.185 56.5453 137.342 56.1485 136.344 55.9034Z" fill="white"/>
<path d="M157.367 55.1917C157.793 55.5492 158.182 55.8599 158.534 56.124C158.926 56.3827 159.261 56.5973 159.536 56.768C159.859 56.9738 160.146 57.1533 160.399 57.3063C160.786 57.5244 161.195 57.7397 161.624 57.9524C161.988 58.1529 162.373 58.3506 162.778 58.5457C163.226 58.7353 163.67 58.9046 164.112 59.0537C163.7 59.2932 163.347 59.5042 163.054 59.6869C162.76 59.8696 162.518 60.0353 162.326 60.1842C162.092 60.3384 161.921 60.4846 161.812 60.6226C161.662 60.7661 161.496 60.9529 161.315 61.1829C160.983 61.5565 160.484 62.1892 159.819 63.0811C161.852 62.9612 163.506 62.9217 164.779 62.9627C166.075 63.0213 167.096 63.0744 167.842 63.122C168.718 63.194 169.365 63.2957 169.783 63.4271C170.759 63.9404 171.365 64.7082 171.604 65.7303C171.704 66.1716 171.728 66.6847 171.677 67.2695C171.645 67.8312 171.477 68.4932 171.175 69.2552C170.873 70.0173 170.424 70.8707 169.828 71.8154C169.251 72.7371 168.455 73.7698 167.442 74.9134C166.914 74.5897 166.433 74.3012 165.998 74.0479C165.587 73.8123 165.244 73.6091 164.968 73.4385C164.628 73.2556 164.328 73.0674 164.071 72.8737L163.041 72.2642C162.677 72.0638 162.231 71.8017 161.703 71.478C161.216 71.1489 160.606 70.7636 159.873 70.3221C161.473 70.2793 162.64 70.0759 163.375 69.7119C164.151 69.3426 164.669 68.9447 164.931 68.5184C165.229 68.046 165.317 67.5079 165.196 66.9042C164.951 66.3166 164.543 65.8636 163.974 65.5454C163.493 65.2569 162.823 65.0651 161.966 64.9701C161.108 64.8751 159.98 65.0528 158.581 65.5032C157.467 67.0109 156.552 68.2656 155.837 69.2671C155.146 70.2863 154.588 71.1125 154.163 71.746C153.689 72.489 153.321 73.0737 153.06 73.5001C152.858 73.898 152.708 74.3717 152.611 74.9213C152.521 75.3667 152.474 75.8993 152.47 76.5193C152.466 77.1393 152.556 77.8298 152.739 78.5906C151.745 77.77 150.902 77.1362 150.21 76.6893C149.794 76.413 149.425 76.1719 149.102 75.9661C148.738 75.7656 148.35 75.5476 147.94 75.3119C147.575 75.1114 147.153 74.867 146.672 74.5785C146.196 74.3306 145.673 74.0476 145.103 73.7293C145.49 73.617 145.878 73.4324 146.267 73.1753C146.638 72.9412 146.977 72.701 147.283 72.4547C147.648 72.18 148 71.8762 148.337 71.5433C148.614 71.2388 149.007 70.7644 149.515 70.1202C150.046 69.4936 150.605 68.76 151.193 67.9195C151.823 67.0736 152.459 66.1959 153.101 65.2864C153.762 64.3539 154.365 63.4701 154.912 62.635C155.458 61.7999 155.911 61.0596 156.271 60.414C156.672 59.7629 156.917 59.2872 157.004 58.9867C157.105 58.6226 157.182 58.2408 157.236 57.8415C157.295 57.4828 157.328 57.0862 157.335 56.6516C157.36 56.1941 157.37 55.7074 157.367 55.1917Z" fill="white"/>
<path d="M183.38 68.5927C183.825 69.3524 184.196 69.9854 184.493 70.4919C184.807 71.022 185.065 71.4491 185.265 71.7734C185.5 72.1449 185.695 72.4372 185.85 72.6502C185.981 72.8798 186.189 73.1638 186.472 73.5023C186.72 73.7935 187.038 74.1793 187.425 74.6599C187.836 75.1238 188.366 75.7015 189.015 76.3928C188.652 76.3924 188.34 76.4109 188.077 76.4485C187.839 76.4695 187.621 76.4941 187.424 76.5222L186.833 76.6067C186.654 76.6585 186.474 76.7103 186.294 76.7622C186.139 76.7974 185.959 76.8493 185.755 76.9176C185.569 77.0096 185.37 77.1099 185.159 77.2185L189.147 82.686L185.846 84.197L182.484 78.9926C181.164 79.7171 180.148 80.2871 179.437 80.7025C178.725 81.1179 178.194 81.4094 177.845 81.5769L177.14 81.9521C176.169 82.5091 175.114 83.124 173.973 83.7967C172.857 84.4528 171.848 85.1068 170.946 85.7584C170.044 86.4101 169.33 87.0218 168.805 87.5935C168.304 88.1487 168.183 88.6038 168.442 88.9589C168.701 89.3139 169.039 89.5791 169.457 89.7546C169.875 89.9301 170.295 90.0335 170.716 90.0647C171.155 90.1196 171.551 90.1153 171.903 90.0519C172.28 89.9719 172.541 89.8823 172.686 89.7832C172.831 89.684 172.974 89.5328 173.116 89.3296C173.393 88.9634 173.697 88.4363 174.029 87.7485C174.36 88.5506 174.631 89.2698 174.842 89.9063C174.935 90.2327 175.011 90.5355 175.069 90.8146C175.145 91.1174 175.235 91.464 175.338 91.8543C175.407 92.1973 175.504 92.6279 175.628 93.1459C175.752 93.664 175.892 94.2778 176.047 94.9875C175.57 94.5329 175.137 94.2616 174.747 94.1736C174.546 94.0977 174.36 94.0656 174.187 94.0772C173.8 94.0933 173.299 94.1519 172.684 94.2529C172.093 94.3373 171.425 94.3153 170.678 94.1867C169.932 94.0582 169.122 93.7427 168.248 93.2403C167.392 92.7616 166.499 91.9352 165.57 90.7612C164.607 89.5398 164.125 88.4324 164.126 87.4392C164.143 86.4696 164.354 85.6161 164.759 84.8787C165.205 84.1484 165.725 83.5448 166.319 83.0678C166.914 82.5907 167.311 82.266 167.512 82.0936C167.712 81.9212 168.256 81.5493 169.144 80.978C170.033 80.4068 171.014 79.7895 172.089 79.1261C173.188 78.4463 174.238 77.7995 175.24 77.1858C176.267 76.5555 177.01 76.0834 177.469 75.7694C177.711 75.6041 177.974 75.4424 178.257 75.2843C178.475 75.1356 178.705 74.9786 178.947 74.8133C179.23 74.6552 179.493 74.4935 179.734 74.3282L176.016 69.1554L177.928 67.5294L181.564 72.812C181.796 72.5829 181.995 72.3585 182.161 72.1387C182.368 71.9261 182.527 71.7466 182.638 71.6001C182.755 71.4134 182.848 71.2432 182.918 71.0896C182.97 70.9122 183.025 70.7148 183.084 70.4973C183.118 70.2964 183.163 70.0351 183.219 69.7135C183.274 69.392 183.328 69.0184 183.38 68.5927Z" fill="white"/>
<path d="M196.072 121.561C196.118 122.322 196.02 123.118 195.778 123.949C195.564 124.78 195.261 125.584 194.869 126.364C194.506 127.142 194.094 127.849 193.634 128.485C193.205 129.149 192.784 129.695 192.37 130.124C191.624 130.889 190.586 131.433 189.256 131.755C187.957 132.105 186.599 132.223 185.184 132.109C183.797 131.994 182.47 131.642 181.201 131.052C179.932 130.463 178.971 129.611 178.315 128.496C177.856 127.695 177.484 126.905 177.202 126.126C176.919 125.346 176.697 124.594 176.535 123.868C176.374 123.142 176.273 122.457 176.234 121.814C176.194 121.17 176.175 120.614 176.176 120.145C176.18 119.265 176.431 118.331 176.928 117.341C177.427 116.381 178.06 115.459 178.828 114.575C179.597 113.721 180.447 112.98 181.377 112.353C182.337 111.724 183.252 111.332 184.123 111.177C185.312 110.949 186.569 110.865 187.893 110.924C189.217 110.983 190.458 111.354 191.615 112.037C192.774 112.748 193.765 113.848 194.59 115.337C195.417 116.855 195.911 118.93 196.072 121.561ZM178.949 120.859C178.91 121.184 179.01 121.619 179.249 122.166C179.517 122.711 179.916 123.236 180.445 123.741C180.977 124.274 181.636 124.729 182.422 125.105C183.239 125.509 184.206 125.731 185.324 125.77C186.412 125.81 187.407 125.767 188.309 125.639C189.213 125.541 189.995 125.375 190.656 125.141C191.346 124.906 191.902 124.647 192.325 124.364C192.748 124.082 193.039 123.791 193.196 123.49C193.429 122.982 193.597 122.373 193.701 121.665C193.833 120.956 193.768 120.357 193.503 119.871C193.372 119.642 193.105 119.36 192.703 119.026C192.301 118.692 191.797 118.362 191.19 118.037C190.612 117.71 189.948 117.417 189.199 117.156C188.451 116.925 187.678 116.768 186.881 116.686C186.084 116.604 185.233 116.611 184.329 116.71C183.427 116.837 182.575 117.065 181.774 117.393C181.001 117.72 180.339 118.16 179.786 118.712C179.263 119.292 178.984 120.008 178.949 120.859Z" fill="white"/>
<path d="M174.122 133.958C174.368 134.63 174.771 135.222 175.331 135.735C175.892 136.247 176.461 136.671 177.038 137.007C177.722 137.4 178.452 137.731 179.23 137.998C179.711 138.126 180.483 138.301 181.546 138.522C182.439 138.699 183.665 138.934 185.224 139.227C186.812 139.527 188.867 139.892 191.391 140.32C191.446 140.001 191.489 139.724 191.522 139.49C191.582 139.264 191.631 139.08 191.669 138.938L191.793 138.471C191.831 138.33 191.862 138.156 191.887 137.95C191.904 137.773 191.922 137.535 191.941 137.237C191.952 136.967 191.964 136.637 191.978 136.247C192.189 136.363 192.408 136.452 192.634 136.512C192.882 136.608 193.101 136.697 193.291 136.778C193.51 136.866 193.719 136.937 193.917 136.989L194.554 137.158C194.752 137.211 194.965 137.268 195.191 137.328C195.41 137.416 195.629 137.505 195.848 137.593L194.868 140.925C196.124 141.107 197.229 141.34 198.184 141.624C199.167 141.916 200.006 142.184 200.698 142.428C201.497 142.731 202.189 143.036 202.774 143.343C203.485 143.745 204.122 144.202 204.682 144.714C205.243 145.227 205.67 145.841 205.965 146.556C206.259 147.27 206.403 148.097 206.395 149.034C206.416 149.98 206.26 151.075 205.928 152.32C205.522 153.728 205.039 154.798 204.481 155.528C203.95 156.266 203.377 156.766 202.762 157.027C202.175 157.295 201.562 157.375 200.924 157.266C200.286 157.157 199.681 156.981 199.109 156.738C198.558 156.531 198.061 156.293 197.617 156.024C197.166 155.783 196.823 155.646 196.589 155.614C196.412 155.597 196.166 155.608 195.853 155.646C195.604 155.671 195.287 155.723 194.902 155.802C194.509 155.91 194.051 156.092 193.528 156.347C193.706 155.909 193.869 155.468 194.018 155.022C194.196 154.584 194.352 154.171 194.486 153.782C194.635 153.337 194.766 152.902 194.879 152.477C194.964 152.045 195.053 151.599 195.145 151.138C195.194 150.727 195.251 150.287 195.315 149.819C195.408 149.359 195.436 148.912 195.4 148.478C195.646 149.149 195.939 149.697 196.281 150.121C196.623 150.546 196.941 150.888 197.235 151.148C197.579 151.451 197.941 151.684 198.322 151.846C198.796 152.002 199.342 152.117 199.959 152.19C200.597 152.299 201.197 152.322 201.76 152.259C202.322 152.196 202.797 152.065 203.184 151.864C203.599 151.672 203.817 151.366 203.838 150.947C203.77 150.292 203.365 149.594 202.623 148.851C202.001 148.231 200.992 147.523 199.597 146.728C198.23 145.941 196.245 145.141 193.642 144.328C193.442 144.851 193.267 145.335 193.118 145.78C192.99 146.261 192.862 146.682 192.736 147.043C192.594 147.46 192.474 147.852 192.376 148.22C192.278 148.588 192.183 149.002 192.09 149.463C192.013 149.867 191.902 150.337 191.759 150.875C191.644 151.421 191.528 152.026 191.411 152.692L189.225 152.021C189.304 151.496 189.394 150.99 189.494 150.501C189.594 150.012 189.679 149.58 189.749 149.204C189.834 148.772 189.911 148.368 189.981 147.993C190.058 147.589 190.139 147.171 190.224 146.739C190.294 146.364 190.365 145.928 190.437 145.431C190.501 144.963 190.573 144.467 190.652 143.943C187.347 143.489 184.665 143.14 182.608 142.897C180.571 142.689 178.984 142.556 177.848 142.496C176.514 142.384 175.555 142.342 174.971 142.369C174.473 142.418 174.024 142.511 173.623 142.647C173.259 142.762 172.898 142.924 172.539 143.132C172.18 143.34 171.909 143.616 171.726 143.962C172.11 143.094 172.43 142.345 172.689 141.717C172.919 141.081 173.109 140.54 173.258 140.095C173.423 139.593 173.554 139.158 173.652 138.79C173.714 138.442 173.781 138.021 173.853 137.524C173.987 136.681 174.077 135.492 174.122 133.958Z" fill="white"/>
<path d="M178.922 176.011C178.417 176.459 177.995 176.845 177.655 177.171C177.292 177.514 176.999 177.804 176.777 178.043C176.507 178.316 176.285 178.554 176.11 178.757C175.916 178.937 175.718 179.158 175.514 179.419C175.315 179.64 175.102 179.89 174.874 180.168C174.641 180.487 174.394 180.835 174.132 181.212L170.88 176.679C170.999 177.867 170.881 178.922 170.526 179.842C170.19 180.785 169.798 181.587 169.35 182.248C168.821 183.043 168.21 183.734 167.518 184.322C166.747 184.858 165.963 185.258 165.164 185.524C164.478 185.742 163.71 185.856 162.86 185.868C161.986 185.897 161.097 185.646 160.191 185.115C160.028 186.513 159.731 187.719 159.301 188.732C158.865 189.785 158.432 190.654 158.002 191.338C157.473 192.133 156.91 192.789 156.311 193.307C155.483 193.959 154.598 194.398 153.656 194.623C152.691 194.866 151.756 194.959 150.851 194.901C149.965 194.867 149.157 194.719 148.428 194.459C147.717 194.221 147.193 193.936 146.855 193.603C146.384 193.15 145.901 192.469 145.406 191.56C144.929 190.674 144.457 189.748 143.991 188.781C143.542 187.837 143.128 186.96 142.747 186.148C142.361 185.377 142.047 184.862 141.805 184.604C141.553 184.427 141.17 184.274 140.657 184.144C140.204 184.043 139.59 183.952 138.816 183.871C138.036 183.83 137.003 183.868 135.714 183.986C136.485 183.45 137.173 182.975 137.779 182.561C138.362 182.165 138.871 181.841 139.307 181.59C139.814 181.286 140.253 181.015 140.624 180.776C140.906 180.566 141.265 180.336 141.701 180.085C142.049 179.863 142.511 179.574 143.088 179.218C143.642 178.88 144.278 178.48 144.996 178.019C144.792 178.28 144.68 178.564 144.661 178.87C144.66 179.199 144.674 179.499 144.701 179.77C144.766 180.087 144.872 180.41 145.019 180.738C145.154 181.003 145.398 181.405 145.751 181.946C146.104 182.486 146.523 183.086 147.009 183.747C147.471 184.425 147.984 185.121 148.547 185.833C149.087 186.562 149.624 187.24 150.156 187.866C150.689 188.491 151.2 189.042 151.688 189.518C152.177 189.994 152.589 190.326 152.925 190.515C153.183 190.651 153.475 190.69 153.801 190.63C154.145 190.593 154.479 190.473 154.803 190.268C155.145 190.087 155.441 189.848 155.693 189.552C155.962 189.279 156.16 188.986 156.286 188.674C156.37 188.356 156.479 187.928 156.614 187.39C156.72 186.91 156.847 186.268 156.995 185.465C157.143 184.662 157.33 183.647 157.555 182.422C156.48 180.922 155.612 179.707 154.95 178.776C154.283 177.885 153.779 177.202 153.439 176.725C153.026 176.156 152.738 175.768 152.574 175.562C152.452 175.36 152.304 175.197 152.13 175.071C151.81 174.761 151.414 174.544 150.943 174.421C151.279 174.28 151.621 174.099 151.969 173.877C152.293 173.673 152.593 173.486 152.87 173.317C153.194 173.112 153.509 172.897 153.814 172.67C154.073 172.477 154.346 172.256 154.633 172.006C154.874 171.791 155.164 171.52 155.504 171.195C155.862 170.892 156.246 170.552 156.657 170.174C156.559 170.429 156.516 170.68 156.525 170.928C156.535 171.177 156.559 171.396 156.598 171.586C156.631 171.817 156.679 172.019 156.741 172.191C156.826 172.347 157.043 172.715 157.391 173.295C157.756 173.899 158.218 174.577 158.777 175.33C159.335 176.083 159.944 176.852 160.604 177.639C161.282 178.448 161.955 179.134 162.624 179.695C163.31 180.279 163.979 180.676 164.63 180.885C165.258 181.112 165.789 181.028 166.222 180.632C166.75 180.167 167.217 179.601 167.623 178.935C167.972 178.384 168.283 177.715 168.556 176.928C168.83 176.141 168.968 175.254 168.971 174.267C167.701 172.474 166.678 171.063 165.902 170.035C165.102 169.024 164.481 168.263 164.039 167.753C163.525 167.15 163.165 166.742 162.959 166.53C162.809 166.387 162.623 166.27 162.401 166.179C162.222 166.093 162.012 165.994 161.773 165.88C161.509 165.783 161.244 165.707 160.975 165.651L166.802 161.759C166.686 161.991 166.613 162.228 166.581 162.471C166.567 162.736 166.577 162.984 166.61 163.215C166.661 163.469 166.713 163.722 166.764 163.976C166.821 164.189 167.062 164.612 167.488 165.244C167.89 165.894 168.386 166.638 168.975 167.477C169.582 168.339 170.229 169.227 170.915 170.14C171.595 171.094 172.244 171.962 172.862 172.743C173.475 173.564 174 174.251 174.436 174.802C174.891 175.376 175.175 175.712 175.289 175.81C175.542 175.987 175.862 176.132 176.25 176.245C176.56 176.306 176.938 176.336 177.384 176.333C177.848 176.353 178.361 176.245 178.922 176.011Z" fill="white"/>
<path d="M128.029 186.824C127.222 186.971 126.49 187.193 125.834 187.492C125.287 187.74 124.787 188.069 124.333 188.479C123.857 188.923 123.6 189.491 123.564 190.182C122.964 190.172 122.453 190.161 122.032 190.148C121.616 190.165 121.259 190.17 120.958 190.165C120.624 190.137 120.338 190.129 120.101 190.143C119.859 190.127 119.573 190.12 119.244 190.12C118.944 190.115 118.584 190.106 118.162 190.094C117.718 190.115 117.196 190.121 116.596 190.111C117.04 190.09 117.478 189.965 117.909 189.738C118.312 189.516 118.697 189.282 119.065 189.036C119.485 188.751 119.867 188.429 120.211 188.069C120.435 187.849 120.684 187.536 120.959 187.129C121.204 186.727 121.597 186.313 122.137 185.887C122.677 185.461 123.428 185.042 124.39 184.629C125.328 184.249 126.581 183.947 128.15 183.721C130.035 183.437 131.674 183.481 133.067 183.853C134.466 184.253 135.646 184.827 136.608 185.575C137.576 186.351 138.343 187.239 138.908 188.237C139.474 189.236 139.866 190.192 140.085 191.104C140.303 192.017 140.228 193.028 139.859 194.137C139.491 195.246 138.873 196.311 138.008 197.332C137.113 198.358 135.97 199.266 134.578 200.055C133.192 200.873 131.605 201.445 129.818 201.77C128.781 201.959 127.803 202.003 126.885 201.902C125.944 201.835 125.071 201.667 124.268 201.396C123.435 201.131 122.692 200.79 122.038 200.373C121.389 199.985 120.824 199.567 120.343 199.119C119.855 198.642 119.419 198.126 119.035 197.571C118.698 197.096 118.389 196.542 118.108 195.909C117.828 195.275 117.645 194.609 117.561 193.91C119.739 193.453 121.503 193.088 122.852 192.812C124.172 192.542 125.206 192.339 125.956 192.203L127.901 191.849L129.371 191.581C129.89 191.487 130.564 191.349 131.394 191.168C132.224 190.987 133.239 190.758 134.437 190.48C134.056 189.359 133.512 188.535 132.805 188.009C132.075 187.516 131.346 187.173 130.618 186.978C129.797 186.77 128.934 186.719 128.029 186.824ZM133.522 193.862C132.587 193.973 131.815 194.069 131.204 194.15C130.563 194.237 130.039 194.303 129.629 194.347C129.191 194.397 128.842 194.446 128.583 194.493L127.502 194.69C126.781 194.821 125.45 195.108 123.508 195.551C123.855 196.798 124.328 197.709 124.925 198.285C125.494 198.866 126.056 199.27 126.612 199.496C127.259 199.735 127.935 199.821 128.638 199.752C130.506 199.383 131.824 198.741 132.592 197.827C133.331 196.918 133.641 195.597 133.522 193.862Z" fill="white"/>
</g>
<defs>
<filter id="filter0_d_164_232" x="-13" y="0" width="257.956" height="254.036" filterUnits="userSpaceOnUse" color-interpolation-filters="sRGB">
<feFlood flood-opacity="0" result="BackgroundImageFix"/>
<feColorMatrix in="SourceAlpha" type="matrix" values="0 0 0 0 0 0 0 0 0 0 0 0 0 0 0 0 0 0 127 0" result="hardAlpha"/>
<feOffset dy="4"/>
<feGaussianBlur stdDeviation="2"/>
<feComposite in2="hardAlpha" operator="out"/>
<feColorMatrix type="matrix" values="0 0 0 0 0 0 0 0 0 0 0 0 0 0 0 0 0 0 0.25 0"/>
<feBlend mode="normal" in2="BackgroundImageFix" result="effect1_dropShadow_164_232"/>
<feBlend mode="normal" in="SourceGraphic" in2="effect1_dropShadow_164_232" result="shape"/>
</filter>
</defs>
</svg>
