<svg width="79" height="518" viewBox="0 0 79 518" fill="none" xmlns="http://www.w3.org/2000/svg">
<path fill-rule="evenodd" clip-rule="evenodd" d="M18 22V23.5V50H32V507.099C13.7714 507.587 0 509.819 0 512.5C0 515.538 17.6848 518 39.5 518C61.3152 518 79 515.538 79 512.5C79 509.918 66.2266 507.752 49 507.16V50H61V23.5V22H60.9562C60.6237 16.3149 58.4101 10.9352 54.7028 6.88299C50.6708 2.47589 45.2022 0 39.5 0C33.7978 0 28.3292 2.47588 24.2972 6.88299C20.5899 10.9352 18.3763 16.3149 18.0438 22H18Z" fill="#292929"/>
<path d="M39.7222 10C39.7222 10 34.2222 11 30.2222 13C26.2222 15 24.7223 18.5 24.2222 23C23.7222 27.5 24.2222 41 24.2222 41H30.2222C30.2222 41 28.4342 30.6906 30.2222 24.5C31.2403 20.9754 32.1454 19.0242 34.2222 16C36.0217 13.3798 39.7222 10 39.7222 10Z" fill="#D9D9D9"/>
<path d="M39.7222 10L40.0594 10.3692L41.3427 9.19718L39.6328 9.50807L39.7222 10ZM24.2222 41L23.7226 41.0185L23.7404 41.5H24.2222V41ZM30.2222 41V41.5H30.8164L30.7149 40.9146L30.2222 41ZM30.2222 24.5L29.7419 24.3613L30.2222 24.5ZM34.2222 16L34.6344 16.2831L34.2222 16ZM39.7222 10C39.6328 9.50807 39.6327 9.50808 39.6326 9.5081C39.6326 9.50811 39.6325 9.50813 39.6323 9.50815C39.6321 9.50819 39.6318 9.50825 39.6314 9.50833C39.6306 9.50848 39.6294 9.50869 39.6279 9.50896C39.625 9.5095 39.6207 9.51029 39.6152 9.51132C39.604 9.51338 39.5877 9.51642 39.5665 9.52045C39.524 9.52849 39.4617 9.54046 39.3812 9.55635C39.2203 9.58813 38.9869 9.63561 38.6947 9.69879C38.1104 9.82512 37.29 10.0145 36.3434 10.2669C34.4558 10.7702 32.0431 11.5305 29.9986 12.5528L30.4459 13.4472C32.4014 12.4695 34.7387 11.7298 36.6011 11.2331C37.5295 10.9855 38.3341 10.7999 38.906 10.6762C39.1919 10.6144 39.4195 10.5681 39.575 10.5374C39.6528 10.522 39.7125 10.5106 39.7525 10.503C39.7725 10.4992 39.7876 10.4964 39.7975 10.4945C39.8025 10.4936 39.8062 10.4929 39.8086 10.4925C39.8097 10.4923 39.8106 10.4921 39.8111 10.492C39.8114 10.492 39.8116 10.492 39.8117 10.4919C39.8117 10.4919 39.8117 10.4919 39.8117 10.4919C39.8117 10.4919 39.8117 10.4919 39.7222 10ZM29.9986 12.5528C25.7844 14.6599 24.2348 18.3601 23.7253 22.9448L24.7192 23.0552C25.2098 18.6399 26.6601 15.3401 30.4459 13.4472L29.9986 12.5528ZM23.7253 22.9448C23.4711 25.2326 23.4724 29.7667 23.5348 33.6954C23.5661 35.667 23.613 37.4975 23.6521 38.8349C23.6717 39.5037 23.6893 40.0494 23.702 40.4279C23.7084 40.6172 23.7135 40.7647 23.7171 40.865C23.7188 40.9151 23.7202 40.9534 23.7212 40.9792C23.7216 40.9922 23.722 41.0019 23.7222 41.0085C23.7223 41.0118 23.7224 41.0143 23.7225 41.0159C23.7225 41.0168 23.7226 41.0174 23.7226 41.0178C23.7226 41.0181 23.7226 41.0182 23.7226 41.0183C23.7226 41.0184 23.7226 41.0185 24.2222 41C24.7219 40.9815 24.7219 40.9815 24.7219 40.9814C24.7219 40.9813 24.7219 40.9811 24.7219 40.9809C24.7219 40.9805 24.7218 40.9799 24.7218 40.9791C24.7218 40.9775 24.7217 40.9751 24.7216 40.9719C24.7213 40.9654 24.721 40.9558 24.7205 40.943C24.7196 40.9175 24.7182 40.8794 24.7164 40.8296C24.7129 40.7299 24.7078 40.583 24.7015 40.3943C24.6888 40.017 24.6712 39.4729 24.6517 38.8057C24.6127 37.4713 24.5659 35.6455 24.5347 33.6796C24.472 29.7333 24.4734 25.2674 24.7192 23.0552L23.7253 22.9448ZM24.2222 41.5H30.2222V40.5H24.2222V41.5ZM30.2222 41C30.7149 40.9146 30.7149 40.9146 30.7149 40.9146C30.7149 40.9145 30.7149 40.9145 30.7149 40.9143C30.7148 40.9141 30.7148 40.9137 30.7147 40.9132C30.7145 40.9121 30.7142 40.9104 30.7138 40.9081C30.713 40.9035 30.7118 40.8964 30.7102 40.8869C30.707 40.8679 30.7022 40.8394 30.696 40.8016C30.6836 40.7261 30.6655 40.6139 30.6431 40.4686C30.5982 40.178 30.5358 39.7548 30.4665 39.2273C30.3279 38.1719 30.1615 36.7007 30.0506 35.0382C29.8277 31.696 29.8342 27.6452 30.7026 24.6387L29.7419 24.3613C28.8222 27.5454 28.8287 31.7445 29.0528 35.1047C29.1655 36.7934 29.3343 38.2865 29.4751 39.3576C29.5454 39.8933 29.6089 40.3239 29.6548 40.6212C29.6777 40.7699 29.6963 40.8853 29.7092 40.9638C29.7157 41.0031 29.7207 41.0331 29.7242 41.0536C29.7259 41.0638 29.7272 41.0716 29.7281 41.0769C29.7286 41.0796 29.7289 41.0816 29.7292 41.083C29.7293 41.0838 29.7294 41.0843 29.7295 41.0847C29.7295 41.0849 29.7295 41.0851 29.7296 41.0852C29.7296 41.0853 29.7296 41.0854 30.2222 41ZM30.7026 24.6387C31.7063 21.1639 32.5889 19.2616 34.6344 16.2831L33.8101 15.7169C31.7019 18.7867 30.7743 20.787 29.7419 24.3613L30.7026 24.6387ZM34.6344 16.2831C35.5082 15.0107 36.8576 13.5363 38.004 12.3675C38.5743 11.7861 39.089 11.2857 39.4611 10.9308C39.647 10.7534 39.7971 10.6125 39.9005 10.5162C39.9522 10.468 39.9922 10.431 40.0192 10.4062C40.0326 10.3938 40.0428 10.3844 40.0496 10.3782C40.053 10.3751 40.0555 10.3728 40.0572 10.3713C40.058 10.3705 40.0586 10.37 40.059 10.3696C40.0592 10.3694 40.0593 10.3693 40.0594 10.3693C40.0594 10.3692 40.0594 10.3692 40.0594 10.3692C40.0595 10.3692 40.0594 10.3692 39.7222 10C39.3851 9.63081 39.385 9.63085 39.385 9.63089C39.3849 9.63093 39.3849 9.63099 39.3848 9.63106C39.3846 9.63119 39.3844 9.63138 39.3842 9.63162C39.3837 9.63209 39.3829 9.63277 39.3819 9.63365C39.38 9.63542 39.3772 9.63799 39.3735 9.64136C39.3662 9.6481 39.3554 9.65802 39.3413 9.67099C39.3132 9.69694 39.2719 9.73511 39.2189 9.78449C39.1129 9.88324 38.9599 10.0269 38.7708 10.2073C38.3927 10.5679 37.8699 11.0762 37.2901 11.6673C36.1364 12.8435 34.7357 14.3691 33.8101 15.7169L34.6344 16.2831Z" fill="#D9D9D9"/>
</svg>
