<svg width="367" height="246" viewBox="0 0 367 246" fill="none" xmlns="http://www.w3.org/2000/svg">
<rect x="34.9633" y="118.724" width="316" height="63" rx="31.5" transform="rotate(-12.7058 34.9633 118.724)" fill="#FFF1AB"/>
<circle cx="71.6493" cy="140.799" r="50.0274" transform="rotate(-8.41126 71.6493 140.799)" fill="#B3A1F7"/>
<path d="M42.6599 142.545C43.5422 148.513 45.325 154.643 48.7568 159.652C50.7405 162.548 52.5985 165.352 55.1905 167.763C58.0713 170.443 61.8043 171.987 65.3961 173.499C72.625 176.542 80.1309 176.149 86.9675 172.449C94.3778 168.439 98.3293 160.315 99.4064 152.183C100.208 146.134 100.035 139.656 98.502 133.726C98.2651 132.809 98.0858 131.14 97.5372 130.356" stroke="#F2DCF7" stroke-width="3" stroke-linecap="round"/>
<path d="M60.9033 121.449C61.6452 126.467 63.7096 131.323 64.9963 136.232C65.3828 137.706 65.6282 139.706 66.3893 141.013" stroke="#F2DCF7" stroke-width="3" stroke-linecap="round"/>
<path d="M73.8702 116.444C74.1854 118.576 75.0631 120.654 75.7455 122.677C76.9655 126.294 78.2968 129.871 79.4793 133.5C80.1153 135.451 80.7826 137.303 81.0829 139.334" stroke="#F2DCF7" stroke-width="3" stroke-linecap="round"/>
<path d="M93.3213 130.239C95.5271 129.913 97.6932 128.779 99.789 128.047" stroke="#F2DCF7" stroke-width="3" stroke-linecap="round"/>
<path d="M38.6006 142.652C41.4942 142.089 44.2128 140.711 47.1405 140.278" stroke="#F2DCF7" stroke-width="3" stroke-linecap="round"/>
<path d="M130.94 108.714C132.16 108.742 133.245 108.735 134.194 108.692C135.168 108.613 135.982 108.535 136.637 108.46C137.42 108.389 138.099 108.276 138.674 108.122C139.401 107.935 140.295 107.633 141.356 107.215C142.417 106.797 143.54 106.367 144.723 105.923C145.907 105.479 147.082 105.069 148.248 104.693C149.414 104.317 150.45 104.081 151.355 103.983C152.261 103.886 153.239 103.902 154.289 104.03C155.332 104.127 156.34 104.36 157.313 104.728C158.279 105.065 159.15 105.551 159.924 106.185C160.728 106.812 161.314 107.614 161.682 108.59C162.043 109.536 162.176 110.61 162.08 111.812C161.979 112.984 161.675 114.183 161.169 115.409C160.657 116.604 159.945 117.762 159.033 118.883C158.122 120.004 157.052 120.982 155.824 121.819C154.839 122.444 153.743 122.997 152.535 123.478C151.504 123.889 150.277 124.278 148.854 124.645C147.454 124.975 145.924 125.141 144.263 125.143C144.238 126.075 144.291 126.927 144.424 127.697C144.58 128.431 144.75 129.081 144.935 129.649C145.17 130.302 145.422 130.887 145.692 131.405C145.993 131.916 146.359 132.509 146.79 133.184C147.165 133.743 147.599 134.434 148.094 135.255C148.612 136.039 149.215 136.917 149.901 137.889C149.351 138.007 148.819 138.136 148.306 138.277C147.786 138.388 147.316 138.504 146.894 138.625C146.412 138.76 145.96 138.888 145.539 139.01C145.056 139.145 144.519 139.323 143.927 139.545C143.42 139.717 142.783 139.948 142.014 140.24C141.276 140.525 140.438 140.863 139.499 141.255C139.945 140.201 140.271 139.253 140.475 138.411C140.703 137.532 140.847 136.782 140.906 136.162C140.977 135.444 140.984 134.804 140.928 134.241C140.861 133.776 140.689 132.966 140.411 131.811C140.164 130.649 139.862 129.308 139.506 127.786C139.15 126.264 138.763 124.669 138.343 123.001C137.924 121.333 137.513 119.775 137.109 118.328C136.698 116.85 136.318 115.589 135.968 114.545C135.648 113.495 135.407 112.811 135.243 112.495C135.037 112.123 134.732 111.741 134.328 111.348C133.999 111.002 133.55 110.619 132.981 110.197C132.436 109.738 131.755 109.243 130.94 108.714ZM142.353 115.725C142.388 116.037 142.441 116.362 142.513 116.698C142.649 117.34 142.871 118.155 143.177 119.144C143.502 119.618 143.853 119.991 144.23 120.262C144.638 120.527 145.045 120.712 145.451 120.817C145.887 120.916 146.31 120.953 146.721 120.93C147.131 120.906 147.535 120.852 147.932 120.768C148.843 120.542 149.76 120.123 150.684 119.511C151.905 118.644 152.677 117.617 152.999 116.43C153.322 115.243 153.378 114.081 153.167 112.943C152.957 111.806 152.537 110.809 151.908 109.953C151.308 109.09 150.683 108.552 150.03 108.339C149.496 108.23 148.85 108.271 148.092 108.465C147.426 108.638 146.621 108.985 145.678 109.506C144.734 110.026 143.614 110.84 142.316 111.947C142.28 112.53 142.262 113.045 142.261 113.492C142.261 113.94 142.266 114.338 142.276 114.687C142.293 115.067 142.319 115.413 142.353 115.725ZM162.504 113.351C163.091 113.258 163.614 113.163 164.073 113.065C164.555 112.931 164.961 112.812 165.291 112.71C165.682 112.595 166.027 112.489 166.326 112.394C166.771 112.235 167.229 112.058 167.698 111.862C168.113 111.71 168.54 111.539 168.979 111.349C169.442 111.123 169.887 110.885 170.313 110.634C170.227 111.132 170.159 111.562 170.108 111.924C170.057 112.286 170.027 112.596 170.018 112.854C169.985 113.148 169.988 113.387 170.027 113.571C170.042 113.791 170.082 114.054 170.147 114.36C170.227 114.886 170.406 115.726 170.684 116.881C171.981 115.167 173.083 113.815 173.99 112.823C174.927 111.824 175.671 111.043 176.222 110.478C176.882 109.826 177.41 109.379 177.805 109.135C178.897 108.71 179.946 108.759 180.951 109.279C181.383 109.507 181.822 109.845 182.269 110.293C182.71 110.71 183.14 111.305 183.56 112.079C183.98 112.852 184.375 113.806 184.745 114.942C185.108 116.046 185.413 117.403 185.66 119.012C185.031 119.21 184.463 119.395 183.956 119.567C183.48 119.732 183.078 119.866 182.748 119.968C182.364 120.113 182.003 120.222 181.667 120.294L180.459 120.695C180.044 120.847 179.522 121.022 178.893 121.22C178.288 121.381 177.552 121.601 176.685 121.882C177.748 120.569 178.381 119.492 178.585 118.65C178.813 117.77 178.841 117.077 178.67 116.571C178.485 116.003 178.102 115.557 177.522 115.233C176.87 115.021 176.217 115.032 175.564 115.267C174.997 115.452 174.38 115.855 173.713 116.476C173.047 117.097 172.419 118.125 171.83 119.561C172.308 121.504 172.714 123.111 173.048 124.382C173.413 125.646 173.711 126.669 173.941 127.45C174.228 128.348 174.458 129.05 174.629 129.556C174.819 129.995 175.106 130.445 175.492 130.906C175.797 131.289 176.204 131.697 176.712 132.132C177.22 132.567 177.85 132.976 178.602 133.359C177.244 133.584 176.144 133.819 175.301 134.062C174.788 134.203 174.336 134.331 173.945 134.447C173.531 134.599 173.085 134.758 172.609 134.923C172.194 135.075 171.703 135.244 171.135 135.428C170.605 135.637 170.013 135.859 169.36 136.094C169.533 135.706 169.647 135.266 169.702 134.775C169.764 134.315 169.798 133.876 169.805 133.459C169.83 132.975 169.821 132.481 169.778 131.979C169.717 131.545 169.596 130.9 169.413 130.044C169.262 129.182 169.041 128.222 168.753 127.165C168.488 126.072 168.201 124.95 167.893 123.802C167.578 122.623 167.264 121.524 166.951 120.504C166.638 119.484 166.339 118.605 166.054 117.867C165.793 117.092 165.569 116.565 165.381 116.285C165.15 115.951 164.889 115.623 164.597 115.302C164.342 115.005 164.038 114.702 163.685 114.394C163.325 114.055 162.931 113.708 162.504 113.351ZM198.017 107.275C198.812 107.106 199.67 107.083 200.591 107.206C201.505 107.299 202.408 107.49 203.301 107.779C204.187 108.038 205.006 108.359 205.758 108.742C206.535 109.087 207.186 109.444 207.711 109.811C208.651 110.474 209.408 111.479 209.983 112.826C210.581 114.137 210.945 115.545 211.074 117.051C211.197 118.527 211.058 119.978 210.659 121.405C210.26 122.832 209.53 123.978 208.468 124.843C207.703 125.453 206.934 125.968 206.161 126.388C205.388 126.809 204.632 127.161 203.894 127.446C203.156 127.731 202.451 127.945 201.778 128.089C201.106 128.232 200.522 128.34 200.026 128.414C199.097 128.548 198.065 128.432 196.933 128.066C195.831 127.693 194.746 127.174 193.678 126.507C192.64 125.833 191.707 125.057 190.881 124.179C190.049 123.27 189.474 122.37 189.156 121.479C188.706 120.265 188.396 118.957 188.225 117.555C188.054 116.154 188.227 114.791 188.744 113.467C189.292 112.136 190.279 110.92 191.705 109.817C193.162 108.708 195.266 107.861 198.017 107.275ZM200.292 125.386C200.642 125.375 201.084 125.201 201.619 124.864C202.148 124.495 202.632 123.993 203.071 123.356C203.541 122.713 203.906 121.948 204.164 121.063C204.447 120.14 204.511 119.088 204.355 117.907C204.206 116.756 203.985 115.717 203.691 114.789C203.428 113.855 203.115 113.059 202.751 112.401C202.381 111.713 202.01 111.169 201.637 110.769C201.264 110.37 200.906 110.11 200.561 109.992C199.983 109.828 199.311 109.747 198.544 109.751C197.772 109.723 197.152 109.887 196.684 110.243C196.466 110.417 196.215 110.742 195.933 111.217C195.651 111.693 195.392 112.275 195.155 112.964C194.912 113.623 194.719 114.367 194.576 115.196C194.464 116.019 194.434 116.856 194.488 117.707C194.541 118.559 194.699 119.452 194.962 120.386C195.256 121.314 195.646 122.173 196.134 122.964C196.616 123.724 197.197 124.351 197.877 124.846C198.581 125.303 199.386 125.483 200.292 125.386ZM212.755 93.2095C213.312 92.6754 213.931 92.4318 214.612 92.4785C215.317 92.4881 215.893 92.717 216.34 93.165C216.811 93.5759 217.072 94.1273 217.123 94.8193C217.175 95.5112 216.865 96.2322 216.194 96.9821C215.547 97.695 214.868 98.0314 214.156 97.9911C213.445 97.9509 212.863 97.6916 212.409 97.213C211.986 96.7279 211.761 96.1209 211.734 95.3918C211.7 94.6322 212.04 93.9048 212.755 93.2095ZM213.241 104.944C213.04 104.603 212.821 104.25 212.584 103.885C212.36 103.582 212.083 103.257 211.754 102.912C211.455 102.56 211.08 102.225 210.629 101.905C212.1 101.912 213.236 101.846 214.037 101.707C214.539 101.664 214.986 101.585 215.376 101.47C215.78 101.416 216.235 101.303 216.742 101.131C217.163 101.009 217.689 100.849 218.317 100.652C218.94 100.423 219.632 100.148 220.394 99.826C220.079 100.149 219.802 100.495 219.561 100.866C219.351 101.23 219.184 101.569 219.059 101.884C218.886 102.272 218.759 102.65 218.678 103.019C218.59 103.357 218.621 104.102 218.77 105.252C218.95 106.396 219.178 107.769 219.455 109.371C219.763 110.967 220.085 112.704 220.421 114.581C220.781 116.422 221.113 118.204 221.416 119.929C221.713 121.623 221.943 123.156 222.107 124.526C222.278 125.928 222.337 126.954 222.283 127.604C222.21 128.61 222.088 129.611 221.916 130.606C221.782 131.625 221.499 132.548 221.068 133.374C220.668 134.195 220.063 134.882 219.255 135.438C218.477 135.987 217.396 136.313 216.012 136.416C214.622 136.488 213.436 136.246 212.455 135.688C211.449 135.167 210.599 134.549 209.903 133.835C209.208 133.12 208.642 132.41 208.204 131.705C207.772 131.03 207.408 130.596 207.112 130.403C206.859 130.266 206.587 130.116 206.297 129.954C206.014 129.823 205.708 129.664 205.381 129.478C205.023 129.299 204.62 129.129 204.171 128.969C204.891 128.752 205.523 128.569 206.067 128.421C206.61 128.274 207.05 128.164 207.387 128.092L208.441 127.868C208.784 127.827 209.215 127.751 209.735 127.64C210.162 127.549 210.728 127.429 211.431 127.279C212.103 127.136 212.922 126.93 213.887 126.66C213.59 126.915 213.351 127.142 213.169 127.34C212.964 127.576 212.798 127.771 212.671 127.926C212.551 128.111 212.458 128.275 212.392 128.416C212.333 128.589 212.353 128.984 212.453 129.602C212.559 130.25 212.745 130.897 213.01 131.544C213.282 132.221 213.626 132.787 214.042 133.241C214.459 133.696 214.954 133.846 215.528 133.691C216.102 133.537 216.545 133.139 216.856 132.498C217.173 131.887 217.361 130.969 217.419 129.742C217.514 128.54 217.455 126.987 217.242 125.083C217.059 123.173 216.723 120.848 216.236 118.109C215.611 114.727 215.097 112.009 214.691 109.955C214.286 107.9 213.802 106.23 213.241 104.944ZM236.58 112.818C237.436 112.636 238.211 112.375 238.905 112.035C239.484 111.752 240.013 111.384 240.491 110.931C240.994 110.44 241.262 109.824 241.296 109.082C241.933 109.074 242.476 109.07 242.923 109.071C243.364 109.041 243.744 109.024 244.062 109.02C244.418 109.04 244.721 109.039 244.973 109.018C245.23 109.027 245.533 109.026 245.883 109.016C246.201 109.012 246.584 109.01 247.032 109.011C247.503 108.974 248.058 108.952 248.695 108.944C248.224 108.981 247.76 109.127 247.303 109.384C246.877 109.635 246.47 109.897 246.081 110.172C245.637 110.49 245.234 110.847 244.871 111.244C244.635 111.486 244.373 111.829 244.084 112.274C243.826 112.713 243.412 113.168 242.842 113.641C242.272 114.114 241.478 114.587 240.46 115.059C239.466 115.494 238.138 115.857 236.474 116.147C234.474 116.509 232.734 116.513 231.252 116.157C229.764 115.771 228.507 115.192 227.48 114.42C226.446 113.618 225.626 112.69 225.018 111.638C224.41 110.585 223.987 109.573 223.748 108.601C223.51 107.63 223.582 106.544 223.965 105.344C224.349 104.144 224.996 102.984 225.908 101.863C226.85 100.736 228.057 99.7278 229.53 98.8392C230.995 97.92 232.676 97.2587 234.571 96.8552C235.671 96.6209 236.709 96.5436 237.684 96.6234C238.684 96.6662 239.611 96.8202 240.467 97.0854C241.352 97.3441 242.144 97.6866 242.842 98.1131C243.534 98.5091 244.136 98.9398 244.651 99.4054C245.172 99.9015 245.638 100.441 246.05 101.024C246.412 101.523 246.744 102.107 247.046 102.777C247.349 103.448 247.548 104.156 247.643 104.903C245.333 105.459 243.463 105.905 242.033 106.241C240.633 106.571 239.536 106.821 238.742 106.99L236.679 107.429L235.12 107.761C234.57 107.878 233.855 108.047 232.975 108.266C232.095 108.485 231.02 108.762 229.749 109.097C230.162 110.287 230.746 111.153 231.5 111.695C232.279 112.2 233.055 112.546 233.83 112.733C234.703 112.93 235.619 112.959 236.58 112.818ZM230.696 105.444C231.687 105.297 232.507 105.17 233.156 105.064C233.835 104.952 234.391 104.865 234.826 104.805C235.291 104.737 235.661 104.675 235.936 104.616L237.082 104.372C237.846 104.209 239.257 103.861 241.316 103.327C240.938 102.001 240.43 101.039 239.791 100.44C239.183 99.8349 238.583 99.4194 237.992 99.1938C237.303 98.9572 236.585 98.8865 235.838 98.9815C233.858 99.4352 232.463 100.163 231.655 101.166C230.876 102.163 230.557 103.589 230.696 105.444ZM274.344 95.4789C273.964 95.4958 273.496 95.5476 272.939 95.6342C272.413 95.7143 271.905 95.8064 271.416 95.9105C270.866 96.0277 270.289 96.1666 269.684 96.3274C269.048 96.4946 268.413 96.6619 267.778 96.8291C267.234 96.9768 266.617 97.1561 265.927 97.3669C265.261 97.5407 264.614 97.7264 263.985 97.9243C264.204 97.7499 264.382 97.5363 264.52 97.2833C264.688 97.0237 264.826 96.7707 264.933 96.5242C265.034 96.2472 265.116 95.9581 265.18 95.657C265.235 95.166 265.103 94.6191 264.783 94.0162C264.456 93.3829 263.99 92.8432 263.383 92.3971C262.808 91.9446 262.121 91.6436 261.322 91.4942C260.547 91.3077 259.752 91.3972 258.935 91.7628C258.064 92.172 257.307 92.6687 256.664 93.2528C256.052 93.8304 255.583 94.5533 255.257 95.4216C254.955 96.2528 254.814 97.2413 254.834 98.3872C254.878 99.496 255.106 100.789 255.517 102.268C256.036 104.106 256.657 105.523 257.381 106.52C258.104 107.516 258.876 108.214 259.696 108.615C260.516 109.015 261.352 109.189 262.203 109.135C263.078 109.045 263.919 108.866 264.724 108.598C265.279 108.352 265.759 107.978 266.163 107.477C266.489 107.056 266.752 106.489 266.951 105.776C267.151 105.062 267.115 104.143 266.843 103.019L272.388 101.599C272.13 103.539 271.656 105.141 270.967 106.406C270.272 107.641 269.558 108.639 268.826 109.402C267.96 110.289 267.049 110.963 266.093 111.422C264.885 111.903 263.789 112.232 262.804 112.41C261.813 112.557 260.894 112.593 260.048 112.517C259.201 112.442 258.402 112.293 257.652 112.069C256.901 111.846 256.175 111.585 255.472 111.287C255.016 111.097 254.476 110.733 253.85 110.195C253.224 109.657 252.603 108.991 251.986 108.195C251.363 107.37 250.797 106.436 250.287 105.394C249.778 104.352 249.43 103.244 249.244 102.07C249.051 100.865 249.073 99.6141 249.308 98.3179C249.543 97.0217 250.078 95.7096 250.914 94.3815C252.182 92.386 253.681 90.9485 255.411 90.069C257.165 89.1524 258.893 88.6406 260.596 88.5336C262.292 88.3961 263.86 88.5575 265.3 89.0177C266.74 89.4779 267.81 90.0806 268.512 90.8257C269.214 91.5709 269.736 92.1467 270.078 92.5531C270.444 92.9224 270.715 93.2163 270.889 93.4348C271.087 93.6162 271.246 93.7583 271.363 93.861C271.505 93.9267 271.702 94.0284 271.955 94.1662C272.141 94.2865 272.36 94.4156 272.613 94.5534C272.829 94.6672 273.082 94.805 273.372 94.9669C273.662 95.1288 273.986 95.2994 274.344 95.4789ZM270.421 83.1345C271.358 83.031 272.138 82.9447 272.762 82.8756C273.417 82.8001 273.946 82.7353 274.35 82.6812C274.815 82.6142 275.185 82.5513 275.46 82.4928C275.742 82.4648 276.109 82.3867 276.561 82.2585C276.952 82.1433 277.465 82.0021 278.1 81.8348C278.729 81.637 279.519 81.3729 280.471 81.0423C280.322 81.3935 280.213 81.7044 280.143 81.975C280.066 82.215 280.001 82.4364 279.949 82.6393L279.791 83.2481C279.769 83.4445 279.747 83.6409 279.725 83.8373C279.696 84.0031 279.674 84.1995 279.658 84.4265C279.673 84.6469 279.692 84.8827 279.713 85.1337L286.774 83.6303L286.922 87.4805L280.38 88.4903C280.559 90.0817 280.709 91.3117 280.83 92.1806C280.951 93.0494 281.024 93.689 281.047 94.0994L281.131 94.9441C281.287 96.1251 281.465 97.4131 281.666 98.808C281.861 100.172 282.097 101.432 282.375 102.587C282.653 103.742 282.968 104.697 283.321 105.453C283.667 106.178 284.069 106.492 284.528 106.394C284.986 106.296 285.388 106.083 285.733 105.754C286.079 105.425 286.353 105.063 286.557 104.668C286.791 104.267 286.948 103.882 287.03 103.513C287.104 103.114 287.122 102.822 287.083 102.639C287.044 102.455 286.953 102.251 286.809 102.026C286.558 101.6 286.16 101.078 285.613 100.46C286.544 100.485 287.369 100.533 288.087 100.604C288.45 100.654 288.781 100.712 289.082 100.775C289.414 100.833 289.795 100.895 290.225 100.963C290.594 101.045 291.061 101.137 291.626 101.24C292.191 101.344 292.857 101.473 293.626 101.629C292.979 101.895 292.532 102.197 292.285 102.538C292.128 102.699 292.02 102.866 291.961 103.038C291.818 103.42 291.671 103.93 291.52 104.57C291.362 105.178 291.067 105.816 290.634 106.484C290.201 107.151 289.556 107.8 288.699 108.429C287.874 109.052 286.688 109.56 285.142 109.954C283.535 110.36 282.239 110.348 281.253 109.919C280.297 109.484 279.536 108.911 278.97 108.201C278.427 107.453 278.041 106.689 277.81 105.907C277.58 105.126 277.42 104.601 277.331 104.332C277.242 104.063 277.096 103.376 276.892 102.269C276.688 101.162 276.477 99.945 276.258 98.6177C276.033 97.2599 275.821 95.9631 275.621 94.7275C275.416 93.4613 275.251 92.5379 275.127 91.9572C275.062 91.6515 275.009 91.3273 274.968 90.9846C274.91 90.7095 274.848 90.4192 274.783 90.1135C274.742 89.7708 274.689 89.4466 274.624 89.141L267.966 90.5107L267.134 87.956L273.867 86.714C273.734 86.3908 273.593 86.1015 273.443 85.8459C273.316 85.5533 273.203 85.3218 273.103 85.1514C272.966 84.957 272.835 84.7931 272.711 84.6598C272.556 84.533 272.383 84.3942 272.191 84.2434C272.005 84.1231 271.764 83.9667 271.468 83.7743C271.171 83.5818 270.822 83.3686 270.421 83.1345ZM307.766 78.0098C307.635 78.7408 307.52 79.4041 307.423 79.9999C307.357 80.5891 307.293 81.1139 307.231 81.5744C307.183 82.0959 307.136 82.5531 307.092 82.9459C307.061 83.3999 307.028 83.9182 306.992 84.5009C306.943 85.0225 306.875 85.6761 306.786 86.4617C306.722 87.2103 306.641 88.1061 306.544 89.1493C305.987 87.7342 305.297 86.6671 304.472 85.948C303.642 85.1983 302.838 84.6505 302.062 84.3047C301.15 83.9237 300.209 83.7086 299.24 83.6594C297.531 83.7358 296.346 84.0202 295.684 84.5126C295.022 85.005 294.624 85.537 294.49 86.1087C294.413 86.3487 294.335 86.6531 294.253 87.0218C294.196 87.3535 294.157 87.6972 294.137 88.0529C294.148 88.4022 294.204 88.7416 294.306 89.0713C294.408 89.401 294.605 89.6468 294.895 89.8087C295.08 89.929 295.523 90.0583 296.223 90.1967C296.917 90.3046 297.743 90.4322 298.701 90.5797C299.683 90.6901 300.718 90.8213 301.804 90.9733C302.922 91.1188 303.978 91.2773 304.973 91.4488C305.968 91.6203 306.841 91.8179 307.591 92.0415C308.342 92.2651 308.857 92.5069 309.136 92.767C309.384 93.0336 309.671 93.4039 309.995 93.8779C310.344 94.3149 310.629 94.8293 310.851 95.421C311.097 95.9757 311.258 96.5805 311.333 97.2354C311.433 97.8532 311.395 98.5003 311.219 99.1767C311.044 99.8531 310.675 100.523 310.113 101.185C309.582 101.842 308.802 102.455 307.774 103.026C306.574 103.696 305.359 104.067 304.128 104.137C302.897 104.208 301.738 104.167 300.652 104.015C299.595 103.856 298.665 103.687 297.86 103.507C297.048 103.297 296.496 103.254 296.203 103.381C295.88 103.513 295.534 103.763 295.164 104.129C294.795 104.495 294.444 104.874 294.112 105.264C293.804 105.617 293.538 105.945 293.315 106.248C293.086 106.521 292.964 106.626 292.951 106.565C292.938 106.504 292.945 106.311 292.972 105.986C293.029 105.654 293.073 105.261 293.104 104.807C293.159 104.316 293.193 103.798 293.204 103.252C293.24 102.67 293.236 102.127 293.193 101.625C293.17 101.215 293.142 100.71 293.11 100.109C293.061 99.5768 293.004 98.9339 292.939 98.1808C292.899 97.3907 292.841 96.4444 292.766 95.3421C293.088 96.1043 293.448 96.7464 293.847 97.2686C294.277 97.7842 294.674 98.2267 295.04 98.596C295.481 99.0135 295.89 99.3578 296.267 99.6289C296.816 99.9592 297.436 100.243 298.125 100.479C298.845 100.709 299.556 100.894 300.256 101.032C300.95 101.14 301.594 101.162 302.187 101.1C302.781 101.037 303.257 100.872 303.616 100.604C303.974 100.336 304.238 99.9283 304.409 99.3807C304.611 98.8266 304.711 98.2462 304.71 97.6394C304.708 97.0326 304.637 96.4727 304.496 95.9596C304.348 95.416 304.116 95.0021 303.8 94.7179C303.571 94.543 303.084 94.359 302.34 94.166C301.627 93.9665 300.769 93.7657 299.768 93.5636C298.797 93.355 297.762 93.1441 296.662 92.931C295.593 92.7114 294.569 92.482 293.592 92.2428C292.638 91.9666 291.829 91.6916 291.164 91.4179C290.522 91.1072 290.135 90.7902 290.003 90.467C289.837 89.991 289.678 89.4659 289.523 88.8917C289.363 88.2869 289.266 87.6844 289.234 87.0841C289.226 86.4468 289.317 85.8205 289.505 85.2052C289.724 84.5835 290.116 84.0209 290.679 83.5174C291.055 83.1818 291.582 82.878 292.259 82.606C292.936 82.3341 293.702 82.107 294.558 81.9247C295.407 81.7119 296.3 81.5538 297.236 81.4502C298.166 81.3161 299.057 81.2223 299.908 81.1688C300.784 81.0783 301.574 81.0378 302.279 81.0474C303.014 81.0506 303.578 81.0742 303.971 81.1184C304.432 81.1801 304.893 81.0977 305.356 80.8713C305.765 80.6885 306.181 80.3922 306.605 79.9824C307.029 79.5727 307.416 78.9151 307.766 78.0098Z" fill="black"/>
</svg>
