<svg width="261" height="263" viewBox="0 0 261 263" fill="none" xmlns="http://www.w3.org/2000/svg">
<g filter="url(#filter0_d_160_145)">
<rect width="250" height="252" rx="33" fill="#B19DD2"/>
</g>
<path d="M138.704 125.913C138.704 128.014 138.346 130.094 137.649 132.035C136.953 133.975 135.932 135.739 134.645 137.224C133.358 138.71 131.83 139.888 130.149 140.692C128.467 141.496 126.665 141.91 124.845 141.91C123.025 141.91 121.223 141.496 119.541 140.692C117.86 139.888 116.332 138.71 115.045 137.224C113.758 135.739 112.737 133.975 112.04 132.035C111.344 130.094 110.985 128.014 110.985 125.913C110.985 121.67 112.446 117.602 115.045 114.602C117.644 111.602 121.169 109.917 124.845 109.917C128.521 109.917 132.046 111.602 134.645 114.602C137.244 117.602 138.704 121.67 138.704 125.913Z" fill="#444444"/>
<path d="M124.845 184.913C135.726 197.125 146.451 204.347 155.096 204.347C157.929 204.347 160.612 203.658 162.843 202.113C170.59 196.951 173.423 184.051 170.74 165.647C170.294 162.376 169.697 159.113 168.95 155.669C171.928 154.639 174.611 153.602 177.293 152.572C192.346 145.865 200.69 136.576 200.69 126.431C200.69 116.112 192.346 106.823 177.293 100.29C174.611 99.0858 171.928 98.0559 168.95 97.1933C169.697 93.7559 170.294 90.4857 170.74 87.2155C173.272 68.4704 170.445 55.3964 162.692 50.2336C160.456 48.6888 157.773 48 154.945 48C146.451 48 135.57 55.2225 124.694 67.4339C113.964 55.2225 103.233 48 94.5939 48C91.7606 48 89.0779 48.6888 86.8472 50.2336C79.1004 55.3964 76.2671 68.2966 78.9498 86.7006C79.3959 89.9708 79.9927 93.2342 80.7402 96.6783C77.762 97.7082 75.0793 98.7448 72.3966 99.7746C57.3435 106.482 49 115.771 49 125.916C49 136.235 57.3435 145.524 72.3966 152.058C75.0793 153.261 77.762 154.291 80.7402 155.154C80.0136 158.447 79.4162 161.776 78.9498 165.132C76.4178 183.536 79.2453 196.61 86.8472 201.599C89.0837 203.15 91.7664 203.832 94.5939 203.832C103.239 204.173 113.969 196.951 124.845 184.913ZM116.496 161.694C119.178 161.868 122.012 161.868 124.839 161.868C127.667 161.868 130.5 161.868 133.183 161.694C130.555 165.68 127.771 169.525 124.839 173.217C121.905 169.527 119.121 165.682 116.496 161.694ZM98.0182 143.979C99.5073 146.901 100.852 149.657 102.491 152.405C98.0917 151.754 93.7172 150.892 89.3792 149.824C90.7234 145.183 92.2125 140.361 93.9971 135.546C95.1907 138.295 96.5291 141.224 98.0182 143.972V143.979ZM89.3734 102.523C93.5452 101.493 97.8676 100.631 102.485 99.9418C100.996 102.697 99.5073 105.446 98.0124 108.368C96.5176 111.291 95.1791 114.046 93.9913 116.968C92.1725 112.276 90.6297 107.455 89.3734 102.523ZM97.5721 126.09C99.5073 121.449 101.593 116.801 103.98 112.16C106.217 107.686 108.749 103.219 111.281 98.7447C120.314 98.0517 129.376 98.0517 138.409 98.7447C141.092 103.219 143.473 107.686 145.71 112.16C148.097 116.801 150.183 121.449 152.118 126.09C150.159 130.839 148.021 135.487 145.71 140.02C143.473 144.494 140.941 148.961 138.409 153.435C129.376 154.128 120.314 154.128 111.281 153.435C108.688 149.081 106.253 144.606 103.98 140.02C101.67 135.486 99.5321 130.838 97.5721 126.09ZM155.844 116.801L151.822 108.201C150.333 105.278 148.989 102.523 147.349 99.7746C151.967 100.463 156.29 101.326 160.461 102.356C159.123 107.171 157.628 111.979 155.844 116.801ZM155.844 135.379C157.634 140.194 159.123 145.009 160.461 149.657C156.29 150.687 151.967 151.549 147.349 152.238C148.838 149.483 150.328 146.734 151.822 143.812C153.167 141.23 154.505 138.308 155.844 135.386V135.379ZM159.268 195.065C158.074 195.928 156.585 196.269 154.945 196.269C147.645 196.269 138.554 189.387 129.614 179.068C134.169 173.369 138.4 167.335 142.279 161.005C149.005 160.372 155.681 159.165 162.252 157.394C162.999 160.49 163.445 163.587 163.892 166.683C165.977 181.302 164.332 191.795 159.268 195.065ZM167.02 104.416C183.713 109.92 193.696 118.346 193.696 126.09C193.696 132.798 186.842 139.505 174.773 144.842C172.386 145.872 169.709 146.908 167.026 147.764C164.999 140.366 162.56 133.126 159.726 126.09C162.704 118.694 165.236 111.471 167.02 104.416ZM155.096 55.9113C156.736 55.9113 158.074 56.2524 159.418 57.1151C164.338 60.3852 166.122 70.7041 164.036 85.4968C163.59 88.4192 162.993 91.5156 162.397 94.7857C155.799 93.1772 149.132 91.9718 142.424 91.1745C138.59 84.805 134.356 78.7679 129.758 73.1116C138.699 62.9599 147.795 55.9113 155.096 55.9113ZM133.189 90.4857C130.506 90.3118 127.673 90.3118 124.845 90.3118C122.017 90.3118 119.184 90.3118 116.501 90.4857C119.184 86.3595 122.017 82.5744 124.845 78.9631C127.678 82.5744 130.506 86.5334 133.189 90.4857ZM90.4164 57.1151C91.6099 56.2524 93.099 55.9113 94.7388 55.9113C102.039 55.9113 111.13 62.7927 120.071 73.1116C115.514 78.8094 111.283 84.8431 107.405 91.1745C100.679 91.8083 94.0036 93.0153 87.4324 94.7857C86.6849 91.6894 86.2388 88.5931 85.7926 85.4968C83.7068 70.8779 85.3523 60.5591 90.4164 57.1151ZM82.6696 147.764C65.9768 142.26 55.9935 133.834 55.9935 126.09C55.9935 119.382 62.8479 112.675 74.9171 107.345C77.3043 106.315 79.9811 105.278 82.6638 104.422C84.6915 111.821 87.1301 119.06 89.9644 126.097C86.9862 133.493 84.4484 140.889 82.6638 147.771L82.6696 147.764ZM85.7984 166.683C86.2446 163.761 86.8414 160.664 87.4382 157.394C93.6958 158.946 100.405 160.149 107.41 161.005C111.245 167.375 115.478 173.412 120.076 179.068C111.136 189.213 102.045 196.269 94.7446 196.269C93.1048 196.269 91.7664 195.928 90.4221 195.065C85.3523 191.795 83.7184 181.302 85.8042 166.683H85.7984Z" fill="#303030"/>
<defs>
<filter id="filter0_d_160_145" x="0" y="0" width="261" height="263" filterUnits="userSpaceOnUse" color-interpolation-filters="sRGB">
<feFlood flood-opacity="0" result="BackgroundImageFix"/>
<feColorMatrix in="SourceAlpha" type="matrix" values="0 0 0 0 0 0 0 0 0 0 0 0 0 0 0 0 0 0 127 0" result="hardAlpha"/>
<feMorphology radius="1" operator="dilate" in="SourceAlpha" result="effect1_dropShadow_160_145"/>
<feOffset dx="10" dy="10"/>
<feComposite in2="hardAlpha" operator="out"/>
<feColorMatrix type="matrix" values="0 0 0 0 0.397738 0 0 0 0 0.332684 0 0 0 0 0.505076 0 0 0 1 0"/>
<feBlend mode="normal" in2="BackgroundImageFix" result="effect1_dropShadow_160_145"/>
<feBlend mode="normal" in="SourceGraphic" in2="effect1_dropShadow_160_145" result="shape"/>
</filter>
</defs>
</svg>
