<svg width="261" height="263" viewBox="0 0 261 263" fill="none" xmlns="http://www.w3.org/2000/svg">
<g filter="url(#filter0_d_162_216)">
<rect width="250" height="252" rx="33" fill="#B19DD2"/>
</g>
<g clip-path="url(#clip0_162_216)">
<path d="M123.83 81.5728C109.182 81.5728 100.924 91.2736 87.2524 107.346C87.2485 107.35 87.2468 107.355 87.2448 107.361C86.5584 108.166 86.6807 109.355 87.5114 110.019C88.3421 110.682 89.5653 110.567 90.2536 109.76L90.2574 109.757C92.4278 107.209 97.212 105.628 103.058 105.523C112.153 105.303 125.224 108.785 134.498 118.897C144.474 129.774 158.928 142.739 171.144 142.739C187.296 142.739 200.832 130.164 207.349 109.1C207.645 108.136 207.109 107.116 206.13 106.778C205.151 106.445 204.069 106.911 203.674 107.841C201.649 112.6 198.286 115.647 193.676 116.888C186.295 118.884 177.426 115.79 173.483 112.964C168.196 109.173 163.901 104.703 159.749 100.38C150.461 90.7074 141.688 81.5728 123.83 81.5728ZM123.83 85.3528C139.992 85.3528 147.827 93.5072 156.896 102.953C161.169 107.401 165.583 112.005 171.16 116.002C175.422 119.061 185.586 122.993 194.723 120.528C196.385 120.08 197.927 119.436 199.343 118.609C192.709 131.529 182.632 138.959 171.144 138.959C162.742 138.959 150.761 130.943 137.412 116.386C127.486 105.564 113.616 101.735 103.671 101.735C103.441 101.735 103.212 101.737 102.986 101.743C100.671 101.784 98.4999 102.031 96.5226 102.466C106.261 91.3661 113.16 85.3528 123.83 85.3528ZM126.5 88.1951C125.962 88.1951 125.525 88.6185 125.525 89.1401C125.525 89.6618 125.962 90.0851 126.5 90.0851C138.147 90.0851 146.146 98.6435 154.615 107.708C158.396 111.751 162.306 115.935 166.559 119.269C170.508 122.367 178.764 127.066 186.801 127.066C187.804 127.066 188.803 126.992 189.787 126.833C190.32 126.748 190.679 126.262 190.591 125.748C190.503 125.236 190.002 124.869 189.471 124.969C181.244 126.279 171.97 121.083 167.781 117.8C163.647 114.559 159.789 110.43 156.058 106.438C147.677 97.4681 139.011 88.1951 126.5 88.1951ZM120.22 88.7156C115.953 89.5208 112.777 91.2021 108.409 94.0239C107.961 94.313 107.837 94.9015 108.135 95.3343C108.324 95.6084 108.634 95.7551 108.95 95.7551C109.137 95.7551 109.323 95.7041 109.487 95.5964C113.644 92.9107 116.646 91.3152 120.589 90.5724C121.118 90.4722 121.466 89.9772 121.362 89.465C121.261 88.9528 120.754 88.6287 120.22 88.7156ZM82.5983 126.261C67.9499 126.261 59.6959 135.962 46.0244 152.034C46.0225 152.038 46.0187 152.042 46.0168 152.045C45.3304 152.851 45.4489 154.038 46.2796 154.703C47.1122 155.367 48.3411 155.257 49.0256 154.448V154.445C51.2583 151.825 56.2057 150.22 62.2604 150.152C71.3045 150.036 84.2829 153.517 93.251 163.566C106.983 178.955 120.008 187.428 129.92 187.428C146.074 187.428 159.604 174.854 166.117 153.784C166.413 152.82 165.881 151.8 164.902 151.462C163.925 151.126 162.841 151.59 162.446 152.522C160.306 157.549 156.741 160.712 151.846 161.924C144.867 163.657 136.573 161.035 132.316 157.697C127.605 154.004 123.642 149.86 119.812 145.848C110.193 135.776 101.11 126.261 82.5983 126.261ZM82.6059 130.041C99.411 130.041 107.541 138.553 116.956 148.413C120.881 152.524 124.941 156.776 129.871 160.639C134.989 164.653 144.512 167.644 152.817 165.585C154.701 165.121 156.444 164.41 158.028 163.47C151.392 176.284 141.355 183.648 129.92 183.648C121.159 183.648 109.186 175.637 96.2064 161.093C86.5071 150.224 72.6055 146.368 62.6527 146.368C62.5084 146.368 62.3589 146.37 62.2185 146.372C59.7401 146.398 57.4194 146.654 55.3212 147.121C65.0458 136.042 71.9453 130.041 82.6059 130.041ZM84.575 132.61C84.0368 132.61 83.6 133.033 83.6 133.555C83.6 134.077 84.0368 134.5 84.575 134.5C96.2223 134.5 104.221 143.058 112.69 152.123C116.471 156.166 120.381 160.35 124.634 163.684C128.583 166.782 136.839 171.481 144.876 171.481C145.879 171.481 146.878 171.407 147.862 171.248C148.395 171.163 148.754 170.677 148.666 170.163C148.578 169.651 148.081 169.291 147.546 169.384C139.325 170.707 130.045 165.498 125.856 162.215C121.722 158.974 117.864 154.845 114.133 150.853C105.752 141.883 97.0862 132.61 84.575 132.61ZM79.8143 132.891C74.791 133.543 71.3845 135.271 66.4842 138.439C66.0357 138.728 65.9116 139.317 66.21 139.749C66.3991 140.023 66.7091 140.17 67.025 140.17C67.2122 140.17 67.4001 140.119 67.5658 140.011C72.2185 137.006 75.4303 135.369 80.0732 134.766C80.6075 134.696 80.9795 134.219 80.9073 133.703C80.8352 133.185 80.3427 132.806 79.8143 132.891Z" fill="black"/>
</g>
<defs>
<filter id="filter0_d_162_216" x="0" y="0" width="261" height="263" filterUnits="userSpaceOnUse" color-interpolation-filters="sRGB">
<feFlood flood-opacity="0" result="BackgroundImageFix"/>
<feColorMatrix in="SourceAlpha" type="matrix" values="0 0 0 0 0 0 0 0 0 0 0 0 0 0 0 0 0 0 127 0" result="hardAlpha"/>
<feMorphology radius="1" operator="dilate" in="SourceAlpha" result="effect1_dropShadow_162_216"/>
<feOffset dx="10" dy="10"/>
<feComposite in2="hardAlpha" operator="out"/>
<feColorMatrix type="matrix" values="0 0 0 0 0.397738 0 0 0 0 0.332684 0 0 0 0 0.505076 0 0 0 1 0"/>
<feBlend mode="normal" in2="BackgroundImageFix" result="effect1_dropShadow_162_216"/>
<feBlend mode="normal" in="SourceGraphic" in2="effect1_dropShadow_162_216" result="shape"/>
</filter>
<clipPath id="clip0_162_216">
<rect width="144" height="124" fill="white" transform="translate(53 69)"/>
</clipPath>
</defs>
</svg>
