<svg width="251" height="278" viewBox="0 0 251 278" fill="none" xmlns="http://www.w3.org/2000/svg">
<path d="M210.769 75.6986L158.07 133.88L219.428 172.157L154.429 160.881L161.324 227.983L121.541 189.858L101.158 243.867L91.4548 187.11L45.3686 209.968L76.077 156.115L10.2166 143.31L70.6081 121.82L53.3543 88.1187L90.6676 107.127L84.0588 48.8351L115.186 84.2748L136.611 37.3756L143.081 101.224L210.769 75.6986Z" fill="#F8D93C"/>
<path d="M77.7395 139.918C78.7245 139.591 79.5519 139.316 80.2215 139.092C80.9044 138.841 81.4713 138.637 81.9222 138.478C82.431 138.297 82.8565 138.127 83.1987 137.967C83.5408 137.808 83.9996 137.569 84.5752 137.249C85.06 136.988 85.7002 136.631 86.4958 136.178C87.3048 135.698 88.3048 135.096 89.4958 134.373C89.1892 135.01 88.9672 135.569 88.83 136.048C88.706 136.5 88.6154 136.883 88.5582 137.196C88.4996 137.578 88.4743 137.889 88.4824 138.132C88.5038 138.347 88.6927 138.83 89.0491 139.582C89.4055 140.333 89.8553 141.215 90.3986 142.227C90.9358 143.219 91.5164 144.283 92.1404 145.419C92.7583 146.535 93.3553 147.582 93.9312 148.558C94.5011 149.515 94.9969 150.333 95.4187 151.014C95.8537 151.667 96.1407 152.044 96.2794 152.145C96.6957 152.447 96.9636 152.653 97.083 152.762C97.1964 152.85 97.3649 152.906 97.5883 152.928C97.6777 152.937 97.8215 152.947 98.0196 152.957C98.1983 152.975 98.4314 152.993 98.7189 153.012C99.0258 153.023 99.4063 153.028 99.8605 153.024C99.1182 153.366 98.4793 153.656 97.9438 153.892C97.4022 154.109 96.9604 154.297 96.6183 154.457C96.2181 154.639 95.876 154.799 95.5919 154.935C95.3018 155.051 94.9597 155.21 94.5655 155.413C94.2294 155.592 93.7869 155.814 93.238 156.078C92.7085 156.335 92.0823 156.63 91.3593 156.964C91.662 156.53 91.8964 156.157 92.0624 155.845C92.2417 155.505 92.375 155.228 92.4623 155.014C92.557 154.753 92.6093 154.53 92.6192 154.348C92.6038 154.153 92.5517 153.872 92.4629 153.505C92.3861 153.178 92.2599 152.759 92.0843 152.248C91.9028 151.717 91.6441 151.039 91.3083 150.212L83.9217 154.074C83.8305 154.491 83.7755 154.848 83.757 155.146C83.7324 155.424 83.7278 155.661 83.7432 155.856C83.7512 156.099 83.786 156.286 83.8474 156.418C83.9341 156.562 84.0589 156.724 84.2217 156.905C84.3785 157.066 84.586 157.251 84.8442 157.46C85.1157 157.642 85.4893 157.839 85.9649 158.051C85.4754 158.225 84.9792 158.412 84.4763 158.614C83.9735 158.815 83.5123 159.011 83.0928 159.201C82.5959 159.422 82.1088 159.64 81.6312 159.853C81.1537 160.067 80.6115 160.317 80.0046 160.605C79.4945 160.854 78.9002 161.148 78.222 161.486C77.5184 161.813 76.7725 162.179 75.9842 162.584C76.4149 162.143 76.7683 161.733 77.0444 161.354C77.3144 160.956 77.5324 160.6 77.6984 160.288C77.897 159.94 78.06 159.618 78.1873 159.321C78.2626 159.067 78.3952 158.5 78.5851 157.619C78.7689 156.718 78.962 155.669 79.1644 154.47C79.3862 153.264 79.6063 151.98 79.8246 150.618C80.0624 149.249 80.2631 147.972 80.4268 146.789C80.5846 145.586 80.6973 144.557 80.7651 143.703C80.8329 142.849 80.8337 142.312 80.7676 142.093C80.6508 141.849 80.467 141.598 80.2161 141.341C79.9966 141.116 79.6877 140.882 79.2895 140.639C78.9105 140.388 78.3939 140.148 77.7395 139.918ZM90.2932 148.137C89.9669 147.485 89.6802 146.929 89.4333 146.469C89.1804 145.989 88.9738 145.591 88.8136 145.276C88.6161 144.908 88.4529 144.582 88.3241 144.298C88.182 144.042 88.0061 143.71 87.7966 143.302C87.605 142.954 87.3671 142.524 87.0828 142.012C86.8119 141.472 86.4788 140.834 86.0837 140.098C85.6663 142.814 85.3374 144.924 85.0971 146.428C84.8701 147.905 84.7083 148.987 84.6118 149.674C84.4873 150.484 84.4237 150.956 84.4211 151.091L90.2932 148.137ZM91.6705 133.067C92.3375 132.979 92.9635 132.862 93.5484 132.717C94.1333 132.573 94.6445 132.435 95.082 132.305C95.6029 132.163 96.0731 131.997 96.4926 131.807C97.0342 131.59 97.6961 131.269 98.4783 130.844C99.28 130.411 100.104 129.981 100.95 129.553C101.791 129.105 102.604 128.712 103.391 128.374C104.191 128.009 104.864 127.796 105.409 127.734C105.948 127.653 106.517 127.637 107.118 127.687C107.731 127.71 108.318 127.821 108.877 128.022C109.43 128.203 109.926 128.485 110.367 128.868C110.801 129.23 111.131 129.713 111.356 130.316C111.571 131.102 111.616 131.899 111.491 132.709C111.395 133.396 111.121 134.177 110.669 135.05C110.211 135.904 109.43 136.731 108.327 137.53C108.951 137.37 109.505 137.304 109.991 137.334C110.49 137.335 110.933 137.403 111.321 137.539C111.722 137.647 112.064 137.811 112.347 138.033C112.65 138.247 112.905 138.481 113.111 138.733C113.611 139.315 113.981 140.039 114.22 140.905C114.441 142.068 114.486 143.045 114.355 143.835C114.244 144.617 114.039 145.269 113.741 145.791C113.443 146.312 113.103 146.728 112.719 147.038C112.336 147.348 111.982 147.613 111.658 147.832C111.334 148.051 110.92 148.261 110.418 148.463C109.915 148.664 109.37 148.871 108.784 149.083C108.211 149.268 107.622 149.47 107.016 149.69C106.405 149.89 105.834 150.119 105.304 150.376C104.872 150.594 104.342 150.85 103.716 151.146C103.186 151.402 102.524 151.723 101.73 152.108C100.93 152.473 99.9972 152.903 98.9321 153.396C99.0968 153.151 99.2168 152.902 99.2921 152.649C99.3807 152.367 99.4494 152.127 99.498 151.929C99.5346 151.691 99.5646 151.466 99.5879 151.256C99.5978 151.073 99.514 150.615 99.3363 149.881C99.1587 149.148 98.9293 148.278 98.6482 147.273C98.3611 146.248 98.0433 145.157 97.6948 144C97.3596 142.815 97.0104 141.692 96.6473 140.63C96.2974 139.541 95.9673 138.589 95.6569 137.775C95.3599 136.932 95.1156 136.337 94.924 135.989C94.6818 135.617 94.3979 135.25 94.0723 134.888C93.8034 134.571 93.4578 134.251 93.0355 133.929C92.6325 133.598 92.1775 133.311 91.6705 133.067ZM98.7113 133.668C98.7353 133.748 98.8261 134.013 98.9837 134.464C99.1232 134.856 99.3288 135.466 99.6005 136.296C99.8855 137.099 100.285 138.246 100.8 139.739C101.35 139.765 101.86 139.695 102.33 139.529C102.794 139.343 103.204 139.157 103.559 138.97C103.967 138.74 104.343 138.477 104.688 138.183C105.144 137.754 105.442 137.233 105.582 136.618C105.741 135.995 105.788 135.395 105.722 134.818C105.67 134.213 105.543 133.683 105.341 133.227C105.132 132.752 104.898 132.443 104.639 132.301C104.169 132.109 103.631 132.012 103.023 132.009C102.505 132.015 101.879 132.132 101.145 132.358C100.425 132.557 99.6135 132.994 98.7113 133.668ZM102.839 147.909C103.668 148.002 104.372 147.999 104.95 147.902C105.527 147.805 106 147.683 106.367 147.536C106.793 147.366 107.142 147.159 107.416 146.915C107.729 146.588 108.015 146.206 108.273 145.767C108.544 145.301 108.704 144.823 108.751 144.335C108.813 143.818 108.746 143.309 108.551 142.806C108.35 142.282 107.95 141.783 107.352 141.307C106.846 140.996 106.293 140.815 105.693 140.764C105.163 140.731 104.531 140.827 103.797 141.054C103.083 141.273 102.273 141.787 101.368 142.596L102.839 147.909ZM120.824 120.088C121.88 119.709 122.994 119.487 124.166 119.42C125.351 119.325 126.516 119.485 127.659 119.899C128.796 120.293 129.867 120.971 130.872 121.932C131.871 122.874 132.709 124.181 133.387 125.855C133.949 127.217 134.198 128.693 134.135 130.283C134.086 131.845 133.819 133.371 133.336 134.861C132.853 136.351 132.193 137.722 131.356 138.973C130.514 140.205 129.59 141.167 128.585 141.86C127.975 142.283 127.256 142.593 126.427 142.791C125.611 142.961 124.743 143.029 123.823 142.995C122.916 142.934 121.988 142.768 121.04 142.5C120.112 142.223 119.227 141.84 118.386 141.35C117.538 140.839 116.77 140.23 116.08 139.523C115.409 138.808 114.881 137.991 114.496 137.072C114.159 136.313 113.885 135.439 113.674 134.451C113.476 133.435 113.369 132.394 113.351 131.328C113.347 130.234 113.461 129.138 113.693 128.039C113.939 126.912 114.356 125.851 114.945 124.855C115.528 123.84 116.294 122.929 117.243 122.124C118.206 121.292 119.4 120.613 120.824 120.088ZM119.281 134.285C119.653 136.528 120.363 138.166 121.411 139.199C122.479 140.225 123.732 140.606 125.17 140.344C125.869 140.22 126.456 139.829 126.929 139.17C127.416 138.483 127.788 137.63 128.044 136.611C128.301 135.592 128.447 134.46 128.484 133.216C128.521 131.971 128.447 130.716 128.26 129.449C128.074 128.183 127.759 127.102 127.316 126.206C126.886 125.283 126.395 124.552 125.842 124.013C125.284 123.454 124.696 123.086 124.079 122.908C123.481 122.723 122.915 122.715 122.381 122.884C121.454 123.188 120.736 123.755 120.228 124.584C119.713 125.394 119.356 126.331 119.156 127.394C118.956 128.458 118.876 129.596 118.917 130.809C118.976 132.015 119.098 133.174 119.281 134.285ZM131.582 117.49C132.199 117.378 132.719 117.27 133.143 117.167C133.567 117.064 133.921 116.979 134.203 116.91C134.525 116.826 134.792 116.742 135.005 116.657C135.217 116.571 135.505 116.445 135.866 116.278C136.189 116.127 136.602 115.95 137.105 115.749C137.601 115.528 138.231 115.242 138.992 114.892C138.644 115.39 138.367 115.802 138.162 116.13C137.958 116.458 137.812 116.729 137.724 116.943C137.604 117.192 137.543 117.384 137.54 117.519C137.526 117.614 137.577 117.929 137.695 118.463C137.806 118.977 137.96 119.631 138.155 120.425C138.364 121.19 138.623 122.048 138.931 122.998C139.232 123.928 139.569 124.866 139.941 125.812C140.332 126.751 140.753 127.644 141.203 128.492C141.648 129.32 142.117 130.015 142.612 130.577C143.125 131.132 143.652 131.513 144.192 131.722C144.751 131.923 145.325 131.85 145.914 131.502C146.69 131.057 147.224 130.385 147.517 129.485C147.809 128.586 147.931 127.587 147.882 126.489C147.852 125.383 147.695 124.25 147.411 123.09C147.14 121.902 146.825 120.821 146.466 119.847C146.121 118.845 145.78 117.998 145.441 117.307C145.103 116.615 144.858 116.199 144.707 116.058C144.531 115.905 144.308 115.737 144.036 115.556C143.815 115.398 143.537 115.23 143.201 115.051C142.86 114.853 142.474 114.65 142.043 114.442C142.648 114.222 143.196 114.025 143.685 113.852C144.169 113.658 144.578 113.506 144.913 113.394C145.306 113.259 145.66 113.14 145.975 113.036C146.291 112.932 146.687 112.807 147.163 112.661C147.562 112.546 148.067 112.388 148.678 112.188C149.309 111.98 150.062 111.746 150.937 111.485C150.633 111.696 150.395 111.914 150.224 112.139C150.073 112.356 149.963 112.568 149.895 112.774C149.814 113.008 149.771 113.226 149.767 113.429C149.757 113.611 149.853 114.11 150.055 114.923C150.27 115.709 150.517 116.672 150.795 117.812C151.087 118.925 151.38 120.149 151.674 121.484C151.961 122.799 152.173 124.078 152.309 125.32C152.464 126.555 152.513 127.687 152.454 128.716C152.415 129.737 152.195 130.518 151.794 131.059C151.21 131.852 150.544 132.521 149.798 133.065C149.046 133.59 148.257 134.029 147.431 134.382C146.6 134.715 145.757 134.974 144.902 135.159C144.061 135.317 143.24 135.434 142.439 135.509C141.613 135.571 140.822 135.284 140.067 134.648C139.331 134.003 138.646 133.171 138.014 132.15C137.394 131.101 136.819 129.946 136.287 128.684C135.768 127.394 135.303 126.138 134.892 124.917C134.5 123.688 134.164 122.57 133.883 121.565C133.615 120.532 133.413 119.753 133.276 119.226C133.197 118.967 133.084 118.733 132.934 118.525C132.81 118.329 132.635 118.142 132.408 117.964C132.194 117.759 131.919 117.601 131.582 117.49ZM149.181 109.539C150.525 109.18 151.683 108.851 152.654 108.551C153.62 108.231 154.418 107.968 155.049 107.76C155.777 107.513 156.38 107.283 156.857 107.07C157.354 106.848 158.025 106.524 158.872 106.095C159.589 105.741 160.532 105.274 161.701 104.694C162.864 104.095 164.315 103.335 166.053 102.415C166.211 102.866 166.356 103.311 166.488 103.75C166.633 104.161 166.764 104.523 166.879 104.834C167.013 105.205 167.128 105.551 167.224 105.87C167.326 106.209 167.436 106.646 167.553 107.18C167.647 107.634 167.748 108.22 167.855 108.937C167.976 109.626 168.088 110.464 168.19 111.451C167.595 110.483 167.072 109.719 166.623 109.162C166.167 108.584 165.773 108.139 165.44 107.825C165.069 107.459 164.732 107.203 164.428 107.056C164.122 106.977 163.778 106.948 163.393 106.968C163.054 106.992 162.633 107.071 162.132 107.204C161.65 107.33 161.101 107.561 160.487 107.896C161.184 110.568 161.759 112.73 162.213 114.381C162.667 116.032 163.022 117.32 163.28 118.246C163.591 119.351 163.818 120.142 163.963 120.621C164.186 121.292 164.494 121.917 164.886 122.498C165.209 122.995 165.634 123.473 166.163 123.932C166.691 124.391 167.353 124.718 168.149 124.914L164.61 126.331C164.281 126.462 163.881 126.645 163.409 126.878C163.015 127.081 162.505 127.33 161.879 127.625C161.272 127.913 160.567 128.273 159.766 128.706C159.9 128.071 159.991 127.509 160.038 127.021C160.086 126.532 160.114 126.119 160.12 125.781C160.128 125.375 160.119 125.021 160.093 124.719C159.992 124.312 159.797 123.485 159.508 122.237C159.377 121.731 159.21 121.104 159.007 120.359C158.823 119.605 158.598 118.712 158.33 117.679C158.081 116.639 157.778 115.452 157.42 114.12C157.076 112.76 156.68 111.231 156.233 109.532C155.855 109.572 155.529 109.713 155.256 109.957C154.977 110.181 154.745 110.419 154.561 110.671C154.35 110.979 154.161 111.323 153.994 111.703C153.845 112.143 153.696 112.694 153.549 113.356C153.417 113.924 153.29 114.656 153.171 115.553C153.045 116.431 152.925 117.507 152.81 118.782C152.365 117.664 152.012 116.744 151.751 116.021C151.484 115.279 151.278 114.702 151.132 114.291C150.963 113.8 150.842 113.434 150.77 113.195C150.704 112.976 150.597 112.694 150.45 112.35C150.322 112.067 150.156 111.697 149.954 111.242C149.746 110.766 149.488 110.199 149.181 109.539ZM102.814 170.384C103.439 170.157 103.984 169.95 104.448 169.764C104.906 169.558 105.28 169.397 105.57 169.281L106.411 168.944C106.618 168.839 106.876 168.724 107.186 168.601C107.457 168.492 107.785 168.361 108.172 168.206C108.559 168.051 109.007 167.883 109.516 167.701C109.839 168.198 110.178 168.677 110.534 169.138C110.903 169.571 111.228 169.967 111.508 170.324C111.852 170.745 112.187 171.136 112.512 171.498C112.838 171.859 113.229 172.295 113.686 172.805C114.075 173.23 114.547 173.757 115.104 174.383C115.656 174.989 116.298 175.682 117.031 176.462C117.058 175.758 117.08 175.112 117.098 174.524C117.135 173.928 117.164 173.413 117.185 172.98C117.208 172.479 117.213 172.03 117.202 171.632C117.19 171.234 117.164 170.753 117.124 170.188C117.089 169.71 117.036 169.139 116.966 168.474C116.915 167.802 116.834 167.029 116.723 166.157C117.284 165.933 117.787 165.731 118.231 165.553C118.676 165.375 119.06 165.21 119.383 165.059C119.75 164.911 120.076 164.77 120.36 164.634C120.67 164.51 121.08 164.323 121.59 164.075C122.023 163.857 122.603 163.59 123.332 163.276C124.075 162.934 124.988 162.513 126.072 162.012C125.756 162.473 125.518 162.904 125.356 163.304C125.208 163.676 125.1 163.999 125.031 164.273C124.954 164.594 124.932 164.882 124.966 165.137C124.987 165.352 125.087 165.826 125.264 166.56C125.461 167.286 125.691 168.155 125.952 169.168C126.228 170.153 126.524 171.208 126.841 172.333C127.177 173.45 127.505 174.504 127.825 175.493C128.145 176.483 128.435 177.339 128.696 178.062C128.971 178.756 129.186 179.184 129.343 179.345C129.551 179.53 129.818 179.736 130.147 179.962C130.444 180.156 130.811 180.367 131.247 180.595C131.704 180.814 132.278 181.031 132.972 181.245C132.094 181.642 131.358 181.97 130.765 182.23C130.19 182.482 129.713 182.695 129.332 182.87C128.893 183.068 128.539 183.221 128.268 183.33C127.978 183.446 127.584 183.615 127.087 183.836C126.648 184.034 126.068 184.3 125.345 184.634C124.616 184.948 123.68 185.368 122.538 185.892C122.712 185.465 122.868 185.045 123.003 184.633C123.139 184.221 123.246 183.854 123.322 183.533C123.426 183.156 123.503 182.801 123.554 182.467C123.575 182.034 123.474 181.303 123.251 180.275C123.07 179.386 122.759 178.136 122.317 176.525C121.869 174.894 121.217 172.729 120.361 170.032C120.18 170.797 120.037 171.547 119.933 172.282C119.843 172.989 119.766 173.634 119.704 174.218C119.646 174.89 119.601 175.533 119.57 176.149C119.545 176.785 119.528 177.485 119.52 178.248C119.501 178.904 119.476 179.685 119.445 180.592C119.434 181.49 119.409 182.484 119.368 183.573L118.284 184.074C117.889 183.339 117.518 182.682 117.171 182.106C116.818 181.51 116.495 181.013 116.202 180.616C115.866 180.147 115.547 179.738 115.247 179.389C114.927 179.048 114.573 178.664 114.185 178.238C113.84 177.884 113.423 177.47 112.933 176.996C112.463 176.514 111.923 175.981 111.314 175.398C111.733 177.51 112.116 179.212 112.462 180.504C112.802 181.776 113.096 182.754 113.345 183.436C113.636 184.259 113.878 184.844 114.069 185.192C114.287 185.485 114.585 185.79 114.963 186.108C115.284 186.382 115.703 186.695 116.221 187.046C116.752 187.37 117.407 187.711 118.187 188.07C117.762 188.24 117.317 188.418 116.852 188.604C116.388 188.79 115.966 188.97 115.585 189.145C115.127 189.351 114.675 189.543 114.23 189.721C113.772 189.927 113.24 190.173 112.633 190.461C112.103 190.718 111.467 191.017 110.725 191.359C109.983 191.701 109.134 192.119 108.177 192.614C108.519 192.164 108.786 191.756 108.978 191.388C109.165 191 109.303 190.666 109.391 190.384C109.507 190.047 109.573 189.73 109.592 189.432C109.602 189.249 109.545 188.881 109.422 188.327C109.317 187.765 109.167 187.087 108.972 186.294C108.796 185.493 108.573 184.609 108.304 183.644C108.054 182.671 107.792 181.692 107.516 180.707C107.255 179.694 106.992 178.715 106.729 177.77C106.46 176.804 106.211 175.943 105.983 175.185C105.768 174.399 105.582 173.747 105.426 173.228C105.27 172.709 105.171 172.38 105.129 172.241C104.981 171.965 104.803 171.7 104.597 171.448C104.422 171.227 104.187 171.02 103.89 170.826C103.593 170.631 103.234 170.484 102.814 170.384ZM125.488 162.447C126.854 161.945 127.985 161.525 128.881 161.189C129.79 160.825 130.525 160.531 131.085 160.306L132.623 159.691L141.268 156.23C141.427 156.613 141.573 156.99 141.707 157.362C141.854 157.705 141.969 158.017 142.053 158.296C142.156 158.635 142.239 158.948 142.304 159.235C142.369 159.522 142.43 159.833 142.487 160.168C142.533 160.462 142.584 160.777 142.642 161.112C142.699 161.446 142.73 161.803 142.736 162.18C142.141 161.212 141.527 160.541 140.894 160.168C140.281 159.788 139.704 159.561 139.161 159.487C138.53 159.405 137.911 159.474 137.305 159.694C136.524 160.051 135.927 160.369 135.512 160.647C135.097 160.925 134.791 161.204 134.594 161.484C134.396 161.764 134.266 162.051 134.203 162.344C134.153 162.61 134.102 162.91 134.051 163.243C134.007 163.529 134.012 163.941 134.065 164.478C134.095 164.936 134.169 165.543 134.289 166.3C134.428 167.049 134.62 168.012 134.866 169.187C135.34 168.819 135.711 168.503 135.978 168.239C136.265 167.968 136.49 167.744 136.653 167.566C136.83 167.361 136.952 167.19 137.018 167.051C137.06 166.901 137.11 166.635 137.168 166.254C137.2 165.928 137.241 165.487 137.29 164.931C137.359 164.367 137.412 163.608 137.449 162.654C137.764 163.556 138.015 164.316 138.201 164.935C138.382 165.533 138.539 166.018 138.672 166.389C138.804 166.828 138.919 167.173 139.017 167.425L139.359 168.562C139.485 168.981 139.657 169.549 139.873 170.268C140.102 170.958 140.399 171.834 140.762 172.896C140.308 172.251 139.921 171.757 139.601 171.416C139.295 171.047 139.041 170.779 138.839 170.614C138.607 170.417 138.417 170.292 138.271 170.238C138.124 170.253 137.928 170.286 137.684 170.339C137.465 170.404 137.191 170.503 136.862 170.635C136.553 170.758 136.171 170.967 135.718 171.26C135.99 172.381 136.248 173.272 136.491 173.935C136.748 174.57 136.978 175.048 137.183 175.368C137.406 175.748 137.612 176.001 137.801 176.126C138.03 176.236 138.423 176.246 138.981 176.157C139.533 176.048 140.135 175.851 140.787 175.568C141.452 175.257 142.102 174.863 142.738 174.385C143.375 173.906 143.894 173.329 144.298 172.654C144.59 172.112 144.881 171.459 145.171 170.695C145.407 170.041 145.643 169.243 145.879 168.299C146.134 167.347 146.332 166.24 146.472 164.977C146.665 165.905 146.832 166.677 146.974 167.291C147.128 167.877 147.241 168.357 147.31 168.732C147.398 169.166 147.465 169.497 147.512 169.724C147.584 169.964 147.657 170.314 147.731 170.776C147.806 171.171 147.895 171.717 147.997 172.414C148.112 173.083 148.251 173.943 148.417 174.995C147.514 175.379 146.659 175.743 145.853 176.088C145.04 176.414 144.328 176.71 143.715 176.978C142.986 177.292 142.315 177.583 141.702 177.851C141.064 178.106 140.367 178.419 139.611 178.788C138.946 179.099 138.162 179.481 137.257 179.932C136.372 180.376 135.4 180.888 134.339 181.469C134.027 180.074 133.711 178.77 133.389 177.558C133.08 176.318 132.797 175.235 132.54 174.31C132.235 173.225 131.935 172.227 131.639 171.317C131.045 168.985 130.447 167.145 129.846 165.798C129.246 164.452 128.769 163.626 128.417 163.319C128.259 163.226 128.043 163.123 127.771 163.008C127.548 162.918 127.25 162.826 126.874 162.73C126.498 162.635 126.037 162.54 125.488 162.447Z" fill="black"/>
</svg>
