<svg width="261" height="263" viewBox="0 0 261 263" fill="none" xmlns="http://www.w3.org/2000/svg">
<g filter="url(#filter0_d_162_159)">
<rect width="250" height="252" rx="33" fill="#068992"/>
</g>
<path d="M194.5 44.0498C195.743 44.0498 196.75 43.0335 196.75 41.7798C196.75 40.5261 195.743 39.5098 194.5 39.5098C193.257 39.5098 192.25 40.5261 192.25 41.7798C192.25 43.0335 193.257 44.0498 194.5 44.0498Z" fill="#F1BC19"/>
<path d="M131.5 209.76C178.72 209.76 217 171.14 217 123.5C217 75.8601 178.72 37.2402 131.5 37.2402C84.2797 37.2402 46 75.8601 46 123.5C46 171.14 84.2797 209.76 131.5 209.76Z" fill="#F9DBD2"/>
<path d="M208 55.4002C212.971 55.4002 217 51.335 217 46.3202C217 41.3055 212.971 37.2402 208 37.2402C203.029 37.2402 199 41.3055 199 46.3202C199 51.335 203.029 55.4002 208 55.4002Z" fill="#F1BC19"/>
<path d="M50.5 73.56C52.9853 73.56 55 71.5274 55 69.02C55 66.5126 52.9853 64.48 50.5 64.48C48.0147 64.48 46 66.5126 46 69.02C46 71.5274 48.0147 73.56 50.5 73.56Z" fill="#EE3E54"/>
<path d="M194.5 189.33C196.985 189.33 199 187.297 199 184.79C199 182.283 196.985 180.25 194.5 180.25C192.015 180.25 190 182.283 190 184.79C190 187.297 192.015 189.33 194.5 189.33Z" fill="#FBCD59"/>
<path d="M57.25 196.14C62.2206 196.14 66.25 192.075 66.25 187.06C66.25 182.045 62.2206 177.98 57.25 177.98C52.2794 177.98 48.25 182.045 48.25 187.06C48.25 192.075 52.2794 196.14 57.25 196.14Z" fill="#FBCD59"/>
<path d="M73 202.95C75.4853 202.95 77.5 200.917 77.5 198.41C77.5 195.903 75.4853 193.87 73 193.87C70.5147 193.87 68.5 195.903 68.5 198.41C68.5 200.917 70.5147 202.95 73 202.95Z" fill="#EE3E54"/>
<path d="M164.087 193.87C167.172 193.87 169.674 191.346 169.674 188.234C169.674 185.121 167.172 182.597 164.087 182.597C161.001 182.597 158.5 185.121 158.5 188.234C158.5 191.346 161.001 193.87 164.087 193.87Z" fill="white"/>
<path d="M55 121.23C56.2426 121.23 57.25 120.214 57.25 118.96C57.25 117.706 56.2426 116.69 55 116.69C53.7574 116.69 52.75 117.706 52.75 118.96C52.75 120.214 53.7574 121.23 55 121.23Z" fill="white"/>
<path d="M212.5 82.6401C213.743 82.6401 214.75 81.6238 214.75 80.3701C214.75 79.1164 213.743 78.1001 212.5 78.1001C211.257 78.1001 210.25 79.1164 210.25 80.3701C210.25 81.6238 211.257 82.6401 212.5 82.6401Z" fill="#F1BC19"/>
<path d="M208 116.69C210.485 116.69 212.5 114.657 212.5 112.15C212.5 109.642 210.485 107.61 208 107.61C205.515 107.61 203.5 109.642 203.5 112.15C203.5 114.657 205.515 116.69 208 116.69Z" fill="white"/>
<path d="M166.868 175.71H141.629L183.25 133.72V159.182C183.25 168.31 175.915 175.71 166.868 175.71Z" fill="#8889B9"/>
<path d="M143.259 175.71H110.638L183.25 102.453V135.363L143.259 175.71Z" fill="#9392CC"/>
<path d="M183.25 87.8178V103.192L111.372 175.71H96.1323C91.3533 175.71 87.067 173.633 84.0723 170.341L177.929 75.6528C181.191 78.6719 183.25 82.9963 183.25 87.8178Z" fill="#78A0CF"/>
<path d="M178.313 76.0048L84.4232 170.73C81.5365 167.749 79.75 163.679 79.75 159.182V142.534L150.366 71.29H166.868C171.325 71.29 175.359 73.0901 178.313 76.0048Z" fill="#7AB7CE"/>
<path d="M79.75 143.274V110.364L118.479 71.29H151.1L79.75 143.274Z" fill="#77CBD2"/>
<path d="M96.1322 71.29H120.572L79.75 112.475V87.8179C79.75 78.6902 87.085 71.29 96.1322 71.29Z" fill="#A9D7CB"/>
<path d="M175.375 131.976C175.996 131.976 176.5 132.485 176.5 133.111V156.794C176.5 163.468 171.116 168.9 164.501 168.9H133.001C132.38 168.9 131.876 168.391 131.876 167.765C131.876 167.138 132.38 166.63 133.001 166.63H164.501C169.878 166.63 174.25 162.217 174.25 156.794V133.111C174.25 132.485 174.754 131.976 175.375 131.976Z" fill="#472B29"/>
<path d="M150.438 78.1001H164.501C171.116 78.1001 176.5 83.5322 176.5 90.206V110.218C176.5 110.845 175.996 111.353 175.375 111.353C174.754 111.353 174.25 110.845 174.25 110.218V90.206C174.25 84.783 169.878 80.3701 164.501 80.3701H150.438C149.817 80.3701 149.313 79.8616 149.313 79.2351C149.313 78.6086 149.817 78.1001 150.438 78.1001Z" fill="#472B29"/>
<path d="M98.4993 78.1001H142.937C143.558 78.1001 144.062 78.6086 144.062 79.2351C144.062 79.8616 143.558 80.3701 142.937 80.3701H98.4993C93.1218 80.3701 88.75 84.783 88.75 90.206V114.42C88.75 115.047 88.246 115.555 87.625 115.555C87.004 115.555 86.5 115.047 86.5 114.42V90.206C86.5 83.5322 91.8843 78.1001 98.4993 78.1001Z" fill="#472B29"/>
<path d="M87.625 140.815C88.246 140.815 88.75 141.324 88.75 141.95V156.794C88.75 162.217 93.1218 166.63 98.4993 166.63H104.687C105.308 166.63 105.812 167.138 105.812 167.765C105.812 168.391 105.308 168.9 104.687 168.9H98.4993C91.8843 168.9 86.5 163.468 86.5 156.794V141.95C86.5 141.324 87.004 140.815 87.625 140.815Z" fill="#472B29"/>
<path d="M112.375 166.63H126.438C127.058 166.63 127.562 167.138 127.562 167.765C127.562 168.391 127.058 168.9 126.438 168.9H112.375C111.754 168.9 111.25 168.391 111.25 167.765C111.25 167.138 111.754 166.63 112.375 166.63Z" fill="#472B29"/>
<path d="M166.868 177.299H96.1323C86.23 177.299 78.175 169.173 78.175 159.182V87.818C78.175 77.8278 86.23 69.7012 96.1323 69.7012H166.868C176.77 69.7012 184.825 77.8278 184.825 87.818V159.182C184.825 169.173 176.77 177.299 166.868 177.299ZM96.1323 72.8792C87.967 72.8792 81.3251 79.5802 81.3251 87.818V159.182C81.3251 167.42 87.967 174.121 96.1323 174.121H166.868C175.033 174.121 181.675 167.42 181.675 159.182V87.818C181.675 79.5802 175.033 72.8792 166.868 72.8792H96.1323Z" fill="#472B29"/>
<path d="M139.958 97.4879C141.785 98.7 142.325 101.824 142.266 103.746C142.165 107.122 140.162 108.906 141.204 110.627C141.762 111.551 142.925 112.002 143.834 112.016C146.771 112.061 149.788 107.592 150.114 103.512C150.591 97.5855 145.301 93.5108 144.728 93.0841C139.269 89.014 132.503 90.5757 130.337 91.0751C121.107 93.2066 115.93 100.7 113.561 104.13C112.854 105.151 99.226 125.518 108.615 143.113C109.848 145.423 113.446 152.163 121.523 155.232C129.743 158.356 137.134 155.6 139.062 154.812C146.341 151.752 150.611 147.668 152.96 144.917C154.695 142.886 158.72 138.173 157.269 135.492C156.763 134.559 155.613 133.905 154.576 133.946C152.765 134.019 151.743 136.189 150.112 138.427C150.112 138.427 147.628 141.832 143.339 144.917C142.52 145.505 135.692 150.261 128.566 147.936C123.609 146.318 121.078 142.114 120.02 140.359C115.185 132.33 116.972 123.218 118.481 118.728C126.336 95.4017 136.315 95.0703 139.958 97.4879Z" fill="#FDFCEF"/>
<path d="M129.592 157.525C127.029 157.525 124.192 157.128 121.267 156.016C112.868 152.822 109.11 145.78 107.877 143.467C98.1548 125.234 112.242 104.471 112.845 103.597C115.156 100.246 120.567 92.3966 130.148 90.1834C132.474 89.6522 139.517 88.0314 145.335 92.3716C145.983 92.8551 151.644 97.2726 151.129 103.724C150.773 108.155 147.576 113.299 143.765 113.206C142.565 113.188 141.002 112.588 140.214 111.283C139.366 109.878 139.859 108.505 140.336 107.179C140.678 106.23 141.062 105.154 141.103 103.828C141.161 101.903 140.556 99.42 139.321 98.6005C138.81 98.2623 136.929 97.2362 134.033 98.2373C130.946 99.3088 124.984 103.438 119.721 119.094C118.544 122.597 116.328 131.604 121.143 139.606C122.144 141.267 124.484 145.16 128.998 146.636C135.507 148.758 141.931 144.309 142.642 143.796C146.667 140.9 149.014 137.731 149.097 137.615L149.104 137.606C149.423 137.166 149.72 136.727 150.004 136.31C151.232 134.494 152.396 132.778 154.391 132.698C155.849 132.71 157.384 133.511 158.093 134.821C159.906 138.176 155.703 143.095 153.687 145.46C150.024 149.755 145.247 153.165 139.487 155.587C137.696 156.318 134.063 157.525 129.592 157.525ZM135.912 91.7156C133.599 91.7156 131.646 92.1651 130.661 92.3921C121.919 94.4124 117.039 101.493 114.692 104.893C114.119 105.722 100.783 125.373 109.857 142.391C110.993 144.52 114.449 150.999 122.059 153.893C129.338 156.665 136.07 154.531 138.628 153.487C144.048 151.205 148.544 148.005 151.977 143.98C153.264 142.473 157.181 137.883 156.115 135.91C155.822 135.37 155.098 134.9 154.477 134.97C153.653 135.002 152.945 135.987 151.858 137.592C151.561 138.03 151.248 138.491 150.913 138.952L150.875 138.923C149.945 140.457 146.681 143.676 143.947 145.644C142.633 146.593 135.692 151.208 128.3 148.797C122.99 147.063 120.344 142.666 119.215 140.788C113.907 131.967 116.308 122.172 117.584 118.37C122.878 102.623 129.05 97.5631 133.298 96.0944C137.053 94.7937 139.622 96.0876 140.552 96.7073C142.883 98.2532 143.407 101.956 143.348 103.899C143.299 105.59 142.826 106.9 142.446 107.955C142.01 109.17 141.87 109.669 142.131 110.1C142.453 110.632 143.229 110.927 143.796 110.936C145.963 110.97 148.598 107.102 148.883 103.542C149.304 98.3122 144.541 94.603 143.996 94.199C141.393 92.2513 138.437 91.7156 135.912 91.7156Z" fill="#472B29"/>
<defs>
<filter id="filter0_d_162_159" x="0" y="0" width="261" height="263" filterUnits="userSpaceOnUse" color-interpolation-filters="sRGB">
<feFlood flood-opacity="0" result="BackgroundImageFix"/>
<feColorMatrix in="SourceAlpha" type="matrix" values="0 0 0 0 0 0 0 0 0 0 0 0 0 0 0 0 0 0 127 0" result="hardAlpha"/>
<feMorphology radius="1" operator="dilate" in="SourceAlpha" result="effect1_dropShadow_162_159"/>
<feOffset dx="10" dy="10"/>
<feComposite in2="hardAlpha" operator="out"/>
<feColorMatrix type="matrix" values="0 0 0 0 0.29484 0 0 0 0 0.412347 0 0 0 0 0.42042 0 0 0 1 0"/>
<feBlend mode="normal" in2="BackgroundImageFix" result="effect1_dropShadow_162_159"/>
<feBlend mode="normal" in="SourceGraphic" in2="effect1_dropShadow_162_159" result="shape"/>
</filter>
</defs>
</svg>
