<svg width="84" height="84" viewBox="0 0 84 84" fill="none" xmlns="http://www.w3.org/2000/svg">
<path d="M41.9998 0C32.0269 0.000424014 22.3795 3.63925 14.7839 10.2654C7.18823 16.8915 2.14 26.0726 0.54247 36.1658C-1.05506 46.259 0.902343 56.6057 6.06445 65.3546C11.2266 74.1034 19.2565 80.6836 28.7175 83.9176C30.8175 84.2944 31.605 83.0026 31.605 81.8721C31.605 80.8494 31.5524 77.4582 31.5524 73.8518C21 75.8434 18.27 71.2144 17.43 68.7921C16.4979 66.4363 15.0204 64.3486 13.125 62.7094C11.655 61.902 9.55505 59.9104 13.0725 59.8567C14.4156 60.0061 15.7038 60.4853 16.8278 61.2536C17.9519 62.0219 18.8788 63.0568 19.53 64.2704C20.1044 65.3284 20.8768 66.2599 21.803 67.0113C22.7291 67.7628 23.7907 68.3194 24.9271 68.6495C26.0634 68.9795 27.2521 69.0764 28.425 68.9346C29.5979 68.7927 30.732 68.415 31.7623 67.823C31.9441 65.6339 32.8957 63.587 34.4399 62.0636C25.0949 60.9871 15.33 57.2728 15.33 40.8016C15.271 36.5219 16.8113 32.3811 19.635 29.2287C18.351 25.509 18.5012 21.427 20.055 17.8171C20.055 17.8171 23.5723 16.6867 31.6049 22.231C38.4773 20.2931 45.7324 20.2931 52.6047 22.231C60.6371 16.6329 64.1547 17.8171 64.1547 17.8171C65.7086 21.4269 65.8589 25.509 64.5747 29.2287C67.4069 32.3757 68.9485 36.5201 68.8796 40.8016C68.8796 57.3267 59.0621 60.9871 49.7173 62.0636C50.7196 63.1052 51.4915 64.3558 51.9807 65.7304C52.4699 67.105 52.6648 68.5715 52.5522 70.0302C52.5522 75.7898 52.4997 80.4188 52.4997 81.8723C52.4997 83.0027 53.2872 84.3484 55.3872 83.9177C64.8315 80.6574 72.8384 74.0618 77.9785 65.3085C83.1186 56.5551 85.0574 46.2137 83.4488 36.1303C81.8402 26.0468 76.7889 16.8777 69.1966 10.2596C61.6043 3.64156 51.9651 0.00531779 41.9998 0Z" fill="white"/>
</svg>
