<svg width="261" height="263" viewBox="0 0 261 263" fill="none" xmlns="http://www.w3.org/2000/svg">
<g filter="url(#filter0_d_162_148)">
<rect width="250" height="252" rx="33" fill="#068992"/>
</g>
<path d="M67.3 186.806L54.46 50H195.54L182.687 186.781L124.913 202L67.3 186.806Z" fill="#E44D26"/>
<path d="M125 190.372L171.687 178.079L182.667 61.1846H125V190.372Z" fill="#F16529"/>
<path d="M125 111.927H101.627L100.013 94.7448H125V77.9678H80.7134L81.1334 82.4644L85.4734 128.704H125V111.927ZM125 155.5L124.92 155.519L105.253 150.472L103.993 137.089H86.2667L88.74 163.436L124.92 172.974L125 172.955V155.5Z" fill="#EBEBEB"/>
<path d="M124.94 111.927V128.704H146.687L144.633 150.465L124.933 155.513V172.968L161.14 163.436L161.407 160.599L165.56 116.424L165.993 111.921H161.233L124.94 111.927ZM124.94 77.9678V94.7448H167.6L167.953 90.9701L168.76 82.4644L169.18 77.9614L124.94 77.9678Z" fill="white"/>
<defs>
<filter id="filter0_d_162_148" x="0" y="0" width="261" height="263" filterUnits="userSpaceOnUse" color-interpolation-filters="sRGB">
<feFlood flood-opacity="0" result="BackgroundImageFix"/>
<feColorMatrix in="SourceAlpha" type="matrix" values="0 0 0 0 0 0 0 0 0 0 0 0 0 0 0 0 0 0 127 0" result="hardAlpha"/>
<feMorphology radius="1" operator="dilate" in="SourceAlpha" result="effect1_dropShadow_162_148"/>
<feOffset dx="10" dy="10"/>
<feComposite in2="hardAlpha" operator="out"/>
<feColorMatrix type="matrix" values="0 0 0 0 0.29484 0 0 0 0 0.412347 0 0 0 0 0.42042 0 0 0 1 0"/>
<feBlend mode="normal" in2="BackgroundImageFix" result="effect1_dropShadow_162_148"/>
<feBlend mode="normal" in="SourceGraphic" in2="effect1_dropShadow_162_148" result="shape"/>
</filter>
</defs>
</svg>
