<svg width="261" height="263" viewBox="0 0 261 263" fill="none" xmlns="http://www.w3.org/2000/svg">
<g filter="url(#filter0_d_162_189)">
<rect width="250" height="252" rx="33" fill="#FDEA8A"/>
</g>
<g clip-path="url(#clip0_162_189)">
<path d="M38.5188 116.306C35.9447 136.59 42.2203 156.985 55.965 173.005C69.7097 189.024 89.7978 199.357 111.81 201.729C133.822 204.101 155.955 198.318 173.34 185.653C190.726 172.987 201.939 154.477 204.513 134.194C207.087 113.91 200.811 93.5151 187.067 77.4953C173.322 61.4755 153.234 51.1431 131.222 48.7711C109.209 46.3991 87.0763 52.1818 69.6911 64.8471C52.306 77.5125 41.093 96.0229 38.5188 116.306Z" fill="#FFF7F0"/>
<path d="M121.516 185.75C118.933 185.75 116.352 185.613 113.786 185.338C97.1441 183.538 81.8788 175.943 71.1165 164.109C60.3543 152.274 54.9095 137.096 55.8975 121.683C56.8855 106.269 64.2314 91.7875 76.4307 81.2029C88.63 70.6183 104.759 64.7322 121.516 64.75C124.099 64.7497 126.679 64.8874 129.245 65.1625C145.887 66.9624 161.152 74.5572 171.915 86.3915C182.677 98.2258 188.122 113.404 187.134 128.817C186.146 144.231 178.8 158.713 166.6 169.297C154.401 179.882 138.272 185.768 121.516 185.75Z" fill="#FAEFDE"/>
<path d="M189.41 75.7501C175.163 59.1575 154.346 48.4596 131.539 46.0099C108.732 43.5602 85.8036 49.5594 67.7968 62.6876C49.7901 75.8158 38.1805 94.9977 35.522 116.014C32.8635 137.029 39.3739 158.157 53.621 174.75C60.6529 182.977 69.3851 189.838 79.3126 194.936C89.2401 200.034 100.166 203.268 111.458 204.45C114.856 204.816 118.274 205 121.695 205C137.947 204.976 153.864 200.734 167.623 192.762C181.382 184.79 192.426 173.409 199.492 159.922C206.558 146.435 209.36 131.387 207.577 116.501C205.794 101.615 199.498 87.4924 189.41 75.7501ZM201.557 133.83C199.079 153.391 188.27 171.244 171.508 183.462C154.746 195.679 133.403 201.26 112.174 198.978C90.9463 196.695 71.5717 186.735 58.3129 171.289C45.0541 155.843 38.9972 136.176 41.4746 116.615C43.7684 98.5635 53.1678 81.9141 67.892 69.8212C82.6162 57.7282 101.643 51.0316 121.366 51.0001C124.548 51.0034 127.727 51.1778 130.887 51.5226C152.11 53.8107 171.478 63.7732 184.731 79.2187C197.984 94.6643 204.036 114.328 201.557 133.885V133.83Z" fill="#8D6C9F"/>
<path d="M58.8437 121.262L64.8125 121.895H65.1706C65.9621 121.935 66.7385 121.684 67.3289 121.196C67.9194 120.709 68.2756 120.025 68.3191 119.296C68.3626 118.567 68.09 117.851 67.5611 117.307C67.0322 116.763 66.2904 116.435 65.4989 116.395L59.5301 115.762C59.1382 115.721 58.7412 115.751 58.3619 115.851C57.9826 115.951 57.6283 116.118 57.3193 116.344C57.0103 116.57 56.7527 116.85 56.561 117.168C56.3694 117.486 56.2476 117.835 56.2025 118.196C56.1575 118.557 56.19 118.923 56.2984 119.273C56.4067 119.622 56.5887 119.949 56.834 120.233C57.0792 120.518 57.3829 120.755 57.7278 120.932C58.0726 121.109 58.4518 121.221 58.8437 121.262ZM68.3639 132.785C68.2458 132.068 67.8253 131.423 67.1937 130.99C66.5621 130.558 65.7706 130.372 64.9915 130.475L59.0228 131.272C58.2313 131.323 57.4942 131.662 56.9737 132.214C56.4532 132.766 56.1919 133.486 56.2473 134.215C56.3027 134.944 56.6703 135.623 57.2691 136.103C57.868 136.583 58.6491 136.823 59.4406 136.772H59.8882L65.857 135.975C66.2511 135.922 66.6296 135.796 66.9703 135.606C67.3109 135.415 67.6068 135.164 67.8404 134.867C68.074 134.57 68.2407 134.232 68.3306 133.875C68.4205 133.517 68.4318 133.147 68.3639 132.785ZM74.5415 95.5774C74.8516 95.8264 75.2143 96.0137 75.6066 96.1275C75.999 96.2412 76.4127 96.279 76.8217 96.2385C77.2307 96.1979 77.6262 96.0799 77.9833 95.8918C78.3404 95.7037 78.6515 95.4496 78.897 95.1454C79.1425 94.8413 79.3171 94.4936 79.4098 94.1244C79.5026 93.7551 79.5115 93.3721 79.436 92.9995C79.3605 92.6269 79.2022 92.2727 78.9711 91.9591C78.74 91.6456 78.441 91.3794 78.0929 91.1774L73.3179 87.9049C73.0155 87.6315 72.6534 87.4205 72.2556 87.286C71.8579 87.1515 71.4336 87.0966 71.011 87.1249C70.5885 87.1533 70.1773 87.2642 69.8049 87.4503C69.4324 87.6364 69.1072 87.8935 68.851 88.2044C68.5947 88.5153 68.4133 88.8729 68.3186 89.2535C68.224 89.634 68.2184 90.0288 68.3022 90.4115C68.386 90.7942 68.5572 91.1561 68.8046 91.4731C69.0519 91.79 69.3696 92.0549 69.7367 92.2499L74.5415 95.5774ZM68.3937 144.115L62.9025 146.287C62.5419 146.43 62.2154 146.637 61.9415 146.896C61.6676 147.155 61.4518 147.461 61.3063 147.797C61.1608 148.132 61.0885 148.491 61.0935 148.853C61.0986 149.214 61.1809 149.571 61.3357 149.904C61.4905 150.236 61.7148 150.537 61.9958 150.789C62.2768 151.042 62.609 151.24 62.9734 151.374C63.3378 151.509 63.7273 151.575 64.1197 151.571C64.512 151.566 64.8995 151.49 65.2601 151.347L70.7812 149.175C71.1418 149.032 71.4683 148.826 71.7422 148.567C72.0161 148.308 72.2319 148.002 72.3774 147.666C72.5229 147.33 72.5952 146.971 72.5901 146.61C72.5851 146.248 72.5028 145.891 72.348 145.559C72.1932 145.226 71.9689 144.926 71.6879 144.673C71.4069 144.421 71.0747 144.222 70.7103 144.088C70.3458 143.954 69.9563 143.887 69.564 143.892C69.1716 143.896 68.7841 143.972 68.4235 144.115H68.3937ZM62.2757 106L67.8267 108.035C68.1912 108.169 68.5806 108.235 68.9729 108.23C69.3651 108.225 69.7524 108.148 70.1126 108.005C70.4729 107.862 70.7991 107.655 71.0725 107.396C71.346 107.137 71.5614 106.831 71.7064 106.495C71.8514 106.159 71.9232 105.8 71.9177 105.439C71.9121 105.077 71.8294 104.72 71.6742 104.388C71.5191 104.056 71.2944 103.756 71.0132 103.504C70.7319 103.252 70.3996 103.054 70.0351 102.92L64.4842 100.885C63.7481 100.615 62.9258 100.626 62.1982 100.914C61.4706 101.203 60.8973 101.747 60.6045 102.425C60.3116 103.103 60.3232 103.861 60.6366 104.531C60.95 105.202 61.5396 105.73 62.2757 106ZM176.637 93.7349C175.956 94.107 175.464 94.7128 175.268 95.4194C175.072 96.1259 175.189 96.8751 175.592 97.5024C176.754 99.2817 177.81 101.118 178.756 103.002C178.882 103.371 179.091 103.711 179.369 104C179.647 104.29 179.988 104.522 180.37 104.681C180.752 104.841 181.166 104.925 181.585 104.927C182.004 104.929 182.42 104.85 182.804 104.695C183.188 104.539 183.532 104.311 183.813 104.024C184.095 103.738 184.308 103.4 184.439 103.033C184.569 102.666 184.614 102.278 184.571 101.893C184.528 101.509 184.397 101.137 184.187 100.802C183.155 98.7018 182 96.6546 180.726 94.6699C180.317 94.0474 179.657 93.5994 178.891 93.4242C178.125 93.249 177.314 93.3607 176.637 93.7349ZM182.755 113.892C185.212 123.637 184.894 133.802 181.83 143.4C181.72 143.747 181.686 144.11 181.728 144.469C181.771 144.828 181.89 145.176 182.078 145.492C182.267 145.809 182.521 146.088 182.826 146.314C183.132 146.54 183.483 146.709 183.859 146.81C184.136 146.846 184.418 146.846 184.695 146.81C185.361 146.834 186.016 146.653 186.557 146.294C187.098 145.935 187.493 145.42 187.679 144.83C191.036 134.32 191.385 123.189 188.694 112.517C188.516 111.806 188.038 111.189 187.367 110.803C186.695 110.416 185.884 110.291 185.113 110.455C184.341 110.619 183.672 111.059 183.252 111.678C182.832 112.297 182.696 113.044 182.874 113.755L182.755 113.892Z" fill="#8D6C9F"/>
<path d="M117.964 102.15C116.897 103.786 116.217 105.613 115.97 107.508C115.723 109.404 115.915 111.327 116.532 113.15C116.649 113.496 116.84 113.818 117.092 114.097C117.345 114.376 117.655 114.606 118.004 114.775C118.353 114.943 118.735 115.047 119.127 115.08C119.52 115.112 119.916 115.073 120.292 114.965C120.668 114.856 121.018 114.681 121.32 114.448C121.623 114.215 121.873 113.93 122.056 113.608C122.239 113.286 122.351 112.935 122.386 112.573C122.422 112.211 122.379 111.846 122.262 111.5C121.901 110.404 121.792 109.252 121.941 108.116C122.09 106.98 122.494 105.884 123.127 104.9C127.335 98.1623 141.033 93.7348 145.838 92.6073C146.606 92.4286 147.265 91.9762 147.671 91.3496C148.077 90.7229 148.196 89.9735 148.002 89.266C147.808 88.5585 147.317 87.951 146.637 87.5771C145.957 87.2032 145.144 87.0936 144.376 87.2723C143.57 87.4373 124.291 92.0023 117.964 102.15ZM123.127 131.052C123.789 131.448 124.593 131.586 125.365 131.436C126.137 131.287 126.813 130.862 127.246 130.255C128.699 128.409 129.405 126.152 129.241 123.877C129.078 121.601 128.055 119.45 126.35 117.797C126.098 117.512 125.786 117.276 125.432 117.104C125.079 116.931 124.692 116.826 124.294 116.795C123.896 116.763 123.495 116.805 123.114 116.919C122.734 117.033 122.383 117.216 122.081 117.457C121.779 117.699 121.533 117.993 121.357 118.324C121.181 118.655 121.079 119.015 121.057 119.382C121.035 119.75 121.093 120.118 121.228 120.465C121.363 120.811 121.573 121.129 121.844 121.4C122.7 122.143 123.219 123.158 123.296 124.239C123.374 125.321 123.004 126.389 122.262 127.23C122.045 127.533 121.895 127.872 121.821 128.229C121.747 128.585 121.75 128.952 121.83 129.307C121.911 129.662 122.067 130 122.289 130.299C122.512 130.599 122.797 130.855 123.127 131.052Z" fill="#ED7899"/>
<path d="M159.328 161.303C160.044 159.433 159.328 156.875 155.747 155.335C155.054 154.97 154.233 154.874 153.463 155.068C152.693 155.261 152.039 155.728 151.643 156.366C151.247 157.004 151.143 157.761 151.353 158.471C151.563 159.18 152.07 159.783 152.762 160.148C146.793 164.41 113.965 170.873 81.8534 163.42C80.955 163.192 80.0848 162.879 79.257 162.485C81.7638 160.643 90.1798 158.773 92.2688 159.735C92.9179 160.154 93.7211 160.319 94.5019 160.193C95.2826 160.066 95.9769 159.659 96.432 159.061C96.8872 158.463 97.0658 157.723 96.9287 157.004C96.7916 156.284 96.3499 155.644 95.7009 155.225C91.4034 152.475 81.0774 155.033 76.8695 157.343C73.1987 159.378 72.6615 161.578 72.8704 163.09C73.3778 166.748 78.481 168.15 80.3015 168.59C91.0482 170.992 102.071 172.183 113.13 172.138C136.975 172.275 157.119 167.133 159.328 161.303Z" fill="#8D6C9F"/>
<path d="M92.8357 138.835C92.0065 139.398 91.3884 140.185 91.0674 141.087C90.7465 141.989 90.7387 142.961 91.0451 143.867C91.7613 145.957 94.3577 147.607 98.1777 148.79C96.9134 149.508 96.0033 150.653 95.641 151.98C95.4602 152.89 95.5697 153.829 95.9564 154.684C96.3431 155.538 96.9903 156.27 97.8196 156.792C101.043 159.212 108.504 161 117.308 161C124.89 161.065 132.41 159.728 139.422 157.067C140.15 156.779 140.724 156.236 141.018 155.558C141.312 154.88 141.301 154.122 140.989 153.451C140.676 152.78 140.087 152.251 139.351 151.98C138.615 151.71 137.792 151.719 137.064 152.007C122.5 157.755 106.206 155.335 102.207 152.97C103.162 152.546 104.162 152.214 105.191 151.98C107.504 151.376 109.89 151.044 112.294 150.99C112.443 151 112.592 151 112.741 150.99H115.726C123.97 150.997 132.176 149.951 140.108 147.882C140.868 147.678 141.509 147.204 141.889 146.565C142.27 145.925 142.359 145.173 142.138 144.472C141.916 143.772 141.402 143.182 140.708 142.831C140.014 142.48 139.197 142.398 138.437 142.602C119.426 147.745 101.162 144.94 97.2526 142.602C98.4171 141.94 99.6714 141.422 100.983 141.062C103.397 140.369 105.891 139.945 108.414 139.797C119.945 139.846 131.443 138.656 142.675 136.25C143.466 136.064 144.145 135.596 144.562 134.949C144.979 134.301 145.1 133.528 144.898 132.799C144.696 132.069 144.188 131.444 143.486 131.059C142.783 130.675 141.944 130.564 141.153 130.75C130.495 133.193 119.546 134.394 108.563 134.325H108.354H107.668C101.871 134.405 96.0808 133.935 90.3885 132.922C95.1482 131.204 100.2 130.273 105.31 130.172C106.102 130.172 106.861 129.883 107.421 129.367C107.98 128.851 108.295 128.152 108.295 127.422C108.295 126.693 107.98 125.994 107.421 125.478C106.861 124.962 106.102 124.672 105.31 124.672C98.3401 124.769 91.4801 126.291 85.2255 129.127C81.4652 131.272 82.2412 133.857 82.6291 134.627C83.6438 136.635 87.4638 138.01 92.8357 138.835Z" fill="#8D6C9F"/>
<path d="M148.166 125.25C147.418 125.491 146.805 125.995 146.46 126.653C146.116 127.311 146.07 128.067 146.331 128.756C146.592 129.446 147.14 130.011 147.853 130.328C148.567 130.645 149.388 130.688 150.136 130.448C151.521 129.908 153.038 129.721 154.528 129.904C156.019 130.088 157.429 130.637 158.612 131.493C159.328 132.007 159.869 132.701 160.171 133.49C160.472 134.28 160.522 135.133 160.313 135.948C159.358 139.743 153.717 143.345 145.182 145.6C144.39 145.699 143.674 146.083 143.19 146.668C142.705 147.254 142.493 147.992 142.6 148.721C142.707 149.451 143.124 150.111 143.759 150.557C144.395 151.003 145.196 151.199 145.988 151.1C146.255 151.134 146.526 151.134 146.793 151.1C161.715 147.195 165.237 140.843 166.102 137.35C166.542 135.604 166.458 133.781 165.859 132.075C165.259 130.37 164.167 128.847 162.7 127.67C160.741 126.094 158.355 125.036 155.796 124.61C153.237 124.184 150.6 124.405 148.166 125.25Z" fill="#8D6C9F"/>
<path d="M114.204 127.643C114.521 127.856 114.881 128.009 115.263 128.094C115.645 128.179 116.041 128.194 116.429 128.137C116.817 128.081 117.189 127.955 117.524 127.767C117.859 127.578 118.151 127.33 118.382 127.038C118.613 126.745 118.78 126.413 118.872 126.062C118.964 125.71 118.98 125.345 118.919 124.987C118.858 124.63 118.721 124.287 118.516 123.978C118.312 123.669 118.043 123.401 117.725 123.188C107.399 116.23 104.296 110.125 107.638 103.47C110.802 98.6904 115.084 94.6222 120.173 91.5626C127.962 86.0626 136.796 79.7926 133.304 67.1151C133.11 66.4077 132.619 65.8002 131.939 65.4263C131.259 65.0524 130.446 64.9427 129.678 65.1214C128.91 65.3001 128.251 65.7525 127.845 66.3791C127.439 67.0057 127.32 67.7552 127.514 68.4626C129.932 77.2076 125.157 81.0851 116.532 87.1901C110.708 90.7189 105.83 95.4205 102.266 100.94C95.3128 114.91 109.578 124.48 114.204 127.643Z" fill="#ED7899"/>
<path d="M159.477 164.217C158.69 164.164 157.912 164.401 157.313 164.875C156.715 165.349 156.345 166.022 156.284 166.747C155.926 170.982 135.781 175.96 104.982 174.145C104.195 174.1 103.421 174.343 102.828 174.822C102.235 175.301 101.872 175.977 101.819 176.702C101.77 177.427 102.034 178.141 102.554 178.687C103.074 179.234 103.808 179.568 104.594 179.617C105.251 179.617 110.235 179.947 117.039 179.947C133.722 179.947 161.297 178.27 162.223 167.16C162.28 166.434 162.024 165.718 161.509 165.166C160.994 164.615 160.264 164.274 159.477 164.217Z" fill="#8D6C9F"/>
</g>
<defs>
<filter id="filter0_d_162_189" x="0" y="0" width="261" height="263" filterUnits="userSpaceOnUse" color-interpolation-filters="sRGB">
<feFlood flood-opacity="0" result="BackgroundImageFix"/>
<feColorMatrix in="SourceAlpha" type="matrix" values="0 0 0 0 0 0 0 0 0 0 0 0 0 0 0 0 0 0 127 0" result="hardAlpha"/>
<feMorphology radius="1" operator="dilate" in="SourceAlpha" result="effect1_dropShadow_162_189"/>
<feOffset dx="10" dy="10"/>
<feComposite in2="hardAlpha" operator="out"/>
<feColorMatrix type="matrix" values="0 0 0 0 0.411765 0 0 0 0 0.388235 0 0 0 0 0.282353 0 0 0 1 0"/>
<feBlend mode="normal" in2="BackgroundImageFix" result="effect1_dropShadow_162_189"/>
<feBlend mode="normal" in="SourceGraphic" in2="effect1_dropShadow_162_189" result="shape"/>
</filter>
<clipPath id="clip0_162_189">
<rect width="191" height="176" fill="white" transform="translate(29 40)"/>
</clipPath>
</defs>
</svg>
