<svg width="84" height="84" viewBox="0 0 84 84" fill="none" xmlns="http://www.w3.org/2000/svg">
<path d="M42 0C18.8038 0 0 18.8038 0 42C0 65.1963 18.8038 84 42 84C65.1963 84 84 65.1963 84 42C84 18.8038 65.1963 0 42 0ZM31.7188 59.4081H23.2137V32.0381H31.7188V59.4081ZM27.4137 28.6781C24.7275 28.6781 22.9906 26.775 22.9906 24.4212C22.9906 22.0194 24.78 20.1731 27.5231 20.1731C30.2662 20.1731 31.9463 22.0194 31.9988 24.4212C31.9988 26.775 30.2662 28.6781 27.4137 28.6781ZM62.7813 59.4081H54.2763V44.24C54.2763 40.7094 53.0425 38.3119 49.9669 38.3119C47.6175 38.3119 46.2219 39.935 45.605 41.4969C45.3775 42.0525 45.3206 42.84 45.3206 43.6231V59.4038H36.8113V40.7663C36.8113 37.3494 36.7019 34.4925 36.5881 32.0338H43.9775L44.3669 35.8356H44.5375C45.6575 34.0506 48.4006 31.4169 52.99 31.4169C58.5856 31.4169 62.7813 35.1663 62.7813 43.225V59.4081Z" fill="white"/>
</svg>
