<svg width="152" height="188" viewBox="0 0 152 188" fill="none" xmlns="http://www.w3.org/2000/svg">
<path d="M70.1994 23.5C70.1994 23.5 65.3143 70.3457 82.963 88.2114C98.0015 103.435 140.399 105.75 140.399 105.75C140.399 105.75 98.0015 109.275 82.963 124.498C65.3143 142.364 72.2051 168.808 72.2051 168.808C72.2051 168.808 68.8879 138.735 51.2392 120.869C36.2007 105.646 0 105.75 0 105.75C0 105.75 36.2007 98.7585 51.2392 83.535C68.8879 65.6693 70.1994 23.5 70.1994 23.5Z" fill="#9E8CBE"/>
<path d="M70.7008 54.1153C70.7008 54.1153 74.3308 73.9179 93.2649 90.2139C111.316 105.75 142.906 105.75 142.906 105.75C142.906 105.75 99.851 108.388 85.2421 123.611C68.0977 141.477 70.7008 162.411 70.7008 162.411C70.7008 162.411 70.7008 140.021 57.798 123.611C44.8722 107.172 5.51566 105.75 5.51566 105.75C5.51566 105.75 41.5507 104.066 56.1595 88.843C73.304 70.9773 70.7008 54.1153 70.7008 54.1153Z" fill="#FFF1CD"/>
<path d="M112.342 0C112.342 0 109.677 33.1266 119.304 45.7602C127.507 56.5253 150.632 58.1625 150.632 58.1625C150.632 58.1625 127.507 60.655 119.304 71.4201C109.677 84.0537 113.436 102.754 113.436 102.754C113.436 102.754 111.626 81.4877 102 68.8541C93.7971 58.089 74.0513 58.1625 74.0513 58.1625C74.0513 58.1625 93.7971 53.2185 102 42.4533C111.626 29.8197 112.342 0 112.342 0Z" fill="#9E8CBE"/>
<path d="M112.615 21.6494C112.615 21.6494 114.595 35.6527 124.923 47.1763C134.769 58.1625 152 58.1625 152 58.1625C152 58.1625 128.515 60.0277 120.547 70.7929C111.195 83.4265 112.615 98.23 112.615 98.23C112.615 98.23 112.615 82.3969 105.577 70.7929C98.527 59.1682 77.0598 58.1625 77.0598 58.1625C77.0598 58.1625 96.7153 56.972 104.684 46.2069C114.035 33.5733 112.615 21.6494 112.615 21.6494Z" fill="#FFF1CD"/>
</svg>
